<svg width="500" height="47" viewBox="0 0 500 47" fill="none" xmlns="http://www.w3.org/2000/svg">
<g clip-path="url(#clip0)">
<path d="M16.61 43.38C25.7835 43.38 33.22 35.9435 33.22 26.77C33.22 17.5966 25.7835 10.16 16.61 10.16C7.43655 10.16 0 17.5966 0 26.77C0 35.9435 7.43655 43.38 16.61 43.38Z" fill="#2E2E2E"/>
<path d="M41.0002 0.390015H24.4302C23.9833 0.486445 23.583 0.733057 23.2958 1.08878C23.0087 1.4445 22.8521 1.88786 22.8521 2.34501C22.8521 2.80217 23.0087 3.24553 23.2958 3.60125C23.583 3.95697 23.9833 4.20358 24.4302 4.30001H36.3502L19.1602 21.5C17.9092 20.8963 16.4847 20.7549 15.1394 21.1011C13.7941 21.4472 12.6148 22.2585 11.8105 23.3911C11.0062 24.5236 10.6289 25.9044 10.7453 27.2886C10.8618 28.6728 11.4646 29.9711 12.4468 30.9534C13.4291 31.9357 14.7274 32.5384 16.1116 32.6549C17.4958 32.7714 18.8766 32.394 20.0092 31.5897C21.1418 30.7854 21.953 29.6061 22.2991 28.2608C22.6453 26.9155 22.504 25.4911 21.9002 24.24L39.0902 7.00001V19C39.0273 19.2918 39.0304 19.5939 39.0994 19.8843C39.1684 20.1746 39.3015 20.4459 39.489 20.6781C39.6764 20.9104 39.9135 21.0977 40.1828 21.2264C40.4521 21.3551 40.7468 21.4219 41.0452 21.4219C41.3437 21.4219 41.6383 21.3551 41.9076 21.2264C42.1769 21.0977 42.414 20.9104 42.6014 20.6781C42.7889 20.4459 42.922 20.1746 42.991 19.8843C43.06 19.5939 43.0632 19.2918 43.0002 19V2.34001C42.9872 1.8183 42.7707 1.32234 42.397 0.958014C42.0234 0.593688 41.5221 0.389852 41.0002 0.390015Z" fill="#FF0000"/>
<path d="M69.1898 3.36H62.9998V20.15H58.8698V3.36H52.7798V0H69.1898V3.36Z" fill="#2E2E2E"/>
<path d="M83.5398 12.8C83.6483 14.7688 83.1073 16.7187 81.9998 18.35C81.5192 19.0193 80.8806 19.5593 80.1409 19.9222C79.4012 20.2851 78.5833 20.4595 77.7598 20.43C77.0692 20.4553 76.3817 20.3266 75.7469 20.0534C75.1122 19.7801 74.5461 19.3691 74.0898 18.85V25.91H70.0898V5.18005H73.7999L73.9398 6.65005C74.391 6.09018 74.9645 5.64128 75.6164 5.33789C76.2682 5.0345 76.981 4.88471 77.6998 4.90005C78.5253 4.85765 79.3486 5.01771 80.0981 5.3663C80.8476 5.71488 81.5004 6.24142 81.9998 6.90005C83.1129 8.56629 83.6534 10.5495 83.5398 12.55V12.8ZM79.5398 12.5C79.607 11.3716 79.3503 10.2474 78.7999 9.26005C78.5749 8.89636 78.2571 8.59909 77.8793 8.39875C77.5015 8.19841 77.0771 8.10222 76.6498 8.12005C76.1232 8.07058 75.594 8.18167 75.1317 8.43869C74.6694 8.69571 74.2957 9.08664 74.0598 9.56005V15.71C74.2946 16.1943 74.6707 16.5959 75.1385 16.8619C75.6062 17.128 76.1437 17.2459 76.6798 17.2C78.5865 17.2 79.5398 15.6334 79.5398 12.5Z" fill="#2E2E2E"/>
<path d="M94.6999 20.15C94.4963 19.7274 94.3613 19.2751 94.2999 18.81C93.8274 19.341 93.2438 19.7615 92.5905 20.0415C91.9372 20.3215 91.2302 20.4541 90.5199 20.43C89.187 20.4792 87.8843 20.0259 86.8699 19.16C86.4043 18.7668 86.0325 18.2745 85.7816 17.7191C85.5308 17.1637 85.4072 16.5593 85.4199 15.95C85.3844 15.243 85.5269 14.5383 85.8344 13.9006C86.1419 13.2629 86.6045 12.7125 87.1799 12.3C88.708 11.3491 90.4931 10.895 92.2899 11H94.1299V10.14C94.1607 9.54068 93.9723 8.9506 93.5999 8.48003C93.3829 8.25924 93.1197 8.08916 92.8293 7.98198C92.5388 7.87479 92.2283 7.83315 91.9199 7.86003C91.3528 7.82634 90.7924 7.99659 90.3399 8.34003C90.1501 8.50384 90.0001 8.70876 89.9013 8.93921C89.8025 9.16967 89.7576 9.4196 89.7699 9.67003H85.7699C85.7677 8.80113 86.0485 7.95515 86.5699 7.26003C87.1532 6.48333 87.9383 5.88149 88.8399 5.52003C89.8821 5.0878 91.0017 4.8734 92.1299 4.89003C93.7133 4.80584 95.2734 5.29982 96.5199 6.28003C97.0685 6.76693 97.5 7.37147 97.7823 8.04852C98.0645 8.72556 98.1902 9.45762 98.1499 10.19V16.68C98.0968 17.7886 98.3022 18.8944 98.7499 19.91V20.15H94.6999ZM91.3899 17.37C91.9486 17.3793 92.5012 17.2523 92.9999 17C93.4685 16.767 93.8555 16.3974 94.1099 15.94V13.34H92.6399C90.6399 13.34 89.5732 14.0334 89.4399 15.42V15.65C89.4364 15.8852 89.4847 16.1182 89.5815 16.3325C89.6783 16.5468 89.8211 16.7372 89.9999 16.89C90.3854 17.2207 90.8824 17.3924 91.3899 17.37Z" fill="#2E2E2E"/>
<path d="M108.11 20.43C107.128 20.4719 106.148 20.3165 105.227 19.9729C104.307 19.6294 103.464 19.1048 102.75 18.43C102.045 17.7192 101.497 16.8689 101.141 15.9338C100.784 14.9987 100.627 13.9994 100.68 13V12.61C100.659 11.2276 100.956 9.85884 101.55 8.61003C102.079 7.4731 102.931 6.51683 104 5.86003C105.1 5.19451 106.364 4.84826 107.65 4.86003C108.549 4.8132 109.448 4.96244 110.283 5.29743C111.119 5.63241 111.872 6.14513 112.49 6.80003C113.749 8.34202 114.378 10.3034 114.25 12.29V14H104.71C104.801 14.8995 105.217 15.7349 105.88 16.35C106.558 16.9532 107.443 17.272 108.35 17.24C109.051 17.2732 109.75 17.1348 110.386 16.8368C111.022 16.5388 111.576 16.0903 112 15.53L114 17.73C113.379 18.6024 112.537 19.293 111.56 19.73C110.476 20.2166 109.297 20.4558 108.11 20.43ZM107.65 8.13003C107.289 8.11755 106.929 8.18349 106.596 8.32333C106.263 8.46316 105.964 8.67356 105.72 8.94003C105.175 9.59521 104.844 10.4012 104.77 11.25H110.33V10.93C110.357 10.1773 110.1 9.44197 109.61 8.87003C109.355 8.61596 109.05 8.41798 108.714 8.28882C108.378 8.15965 108.019 8.10216 107.66 8.12003L107.65 8.13003Z" fill="#2E2E2E"/>
<path d="M122.41 14.63H120.8V20.15H116.8V5.15002H120.8V10.78H122.23L125.5 5.15002H130.55L125.65 12.28L131 20.15H125.67L122.41 14.63Z" fill="#2E2E2E"/>
<path d="M144.94 8.40005H140.14V20.1501H136.14V8.40005H131.42V5.18005H144.96L144.94 8.40005Z" fill="#2E2E2E"/>
<path d="M145.91 12.53C145.881 11.1479 146.176 9.77824 146.77 8.53003C147.307 7.40478 148.167 6.46487 149.24 5.83003C150.372 5.16197 151.665 4.81617 152.98 4.83003C153.886 4.79359 154.791 4.93844 155.641 5.25611C156.491 5.57378 157.269 6.05787 157.93 6.68003C159.248 8.01746 160.012 9.80323 160.07 11.68V12.68C160.169 14.7023 159.481 16.6843 158.15 18.21C156.761 19.543 154.91 20.2872 152.985 20.2872C151.06 20.2872 149.209 19.543 147.82 18.21C146.471 16.6463 145.78 14.6219 145.89 12.56L145.91 12.53ZM149.91 12.81C149.836 13.953 150.115 15.091 150.71 16.07C150.979 16.4205 151.325 16.7045 151.721 16.8999C152.117 17.0953 152.553 17.197 152.995 17.197C153.437 17.197 153.872 17.0953 154.269 16.8999C154.665 16.7045 155.011 16.4205 155.28 16.07C155.911 14.9914 156.197 13.7458 156.1 12.5C156.166 11.3614 155.88 10.2301 155.28 9.26003C155.026 8.89432 154.684 8.5983 154.285 8.39912C153.887 8.19994 153.445 8.10397 153 8.12003C152.556 8.101 152.114 8.19573 151.717 8.39524C151.319 8.59474 150.98 8.89242 150.73 9.26003C150.108 10.335 149.823 11.5714 149.91 12.81Z" fill="#2E2E2E"/>
<path d="M176 12.8C176.097 14.7688 175.546 16.7151 174.43 18.34C173.949 19.0093 173.311 19.5493 172.571 19.9122C171.831 20.2751 171.013 20.4495 170.19 20.42C169.5 20.4446 168.812 20.3156 168.178 20.0424C167.543 19.7692 166.977 19.3585 166.52 18.84V25.9H162.52V5.18005H166.23L166.37 6.65005C166.828 6.0806 167.413 5.62592 168.078 5.32213C168.743 5.01834 169.469 4.87381 170.2 4.90005C171.025 4.85765 171.849 5.01771 172.598 5.3663C173.348 5.71488 174.001 6.24142 174.5 6.90005C175.61 8.58505 176.136 10.5872 176 12.6V12.8ZM172 12.5C172.067 11.3716 171.81 10.2474 171.26 9.26005C171.035 8.89636 170.717 8.59909 170.339 8.39875C169.962 8.19841 169.537 8.10222 169.11 8.12005C168.583 8.07058 168.054 8.18167 167.592 8.43869C167.13 8.69571 166.756 9.08664 166.52 9.56005V15.71C166.755 16.1943 167.131 16.5959 167.599 16.8619C168.066 17.128 168.604 17.2459 169.14 17.2C171.047 17.2 172 15.6334 172 12.5Z" fill="#2E2E2E"/>
<path d="M187.55 5.18003H191.55V20.18H187.55V10.91L182.55 20.16H178.55V5.16003H182.55V14.39L187.55 5.18003Z" fill="#2E2E2E"/>
<path d="M207.09 5.18005V20.1801H203.09V15.0001H200.56L197.68 20.1801H193.62L196.89 14.3301C196.059 13.965 195.344 13.3808 194.82 12.6401C194.334 11.9275 194.079 11.0825 194.09 10.2201C194.076 9.5372 194.22 8.86038 194.511 8.2427C194.803 7.62503 195.234 7.08331 195.77 6.66005C197.059 5.67537 198.648 5.16348 200.27 5.21005L207.09 5.18005ZM200.36 12.1801H203.1V8.40005H200.5C199.874 8.37241 199.26 8.57125 198.77 8.96005C198.563 9.12151 198.397 9.32796 198.282 9.56366C198.168 9.79936 198.109 10.0581 198.11 10.3201C198.107 10.5747 198.163 10.8265 198.274 11.0556C198.385 11.2847 198.548 11.4848 198.75 11.6401C199.208 12.0009 199.777 12.1917 200.36 12.1801Z" fill="#2E2E2E"/>
<path d="M221.93 13.05V20.15H217.78V2.51238e-05H225.64C227.019 -0.0300339 228.387 0.253784 229.64 0.830025C230.737 1.33772 231.659 2.15891 232.29 3.19003C232.917 4.24094 233.24 5.4461 233.22 6.67003C233.263 7.54926 233.106 8.42686 232.759 9.23609C232.413 10.0453 231.886 10.7649 231.22 11.34C229.614 12.5623 227.624 13.169 225.61 13.05H221.93ZM221.93 9.69002H225.64C226.543 9.75357 227.438 9.47913 228.15 8.92002C228.445 8.63418 228.673 8.28742 228.82 7.90397C228.967 7.52052 229.028 7.10963 229 6.70003C229.019 6.26402 228.952 5.82851 228.803 5.41841C228.653 5.00831 228.425 4.63167 228.13 4.31003C227.813 3.99719 227.436 3.75241 227.022 3.59075C226.608 3.42909 226.164 3.35397 225.72 3.37002H221.91L221.93 9.69002Z" fill="#2E2E2E"/>
<path d="M244.32 20.15C244.117 19.7273 243.982 19.275 243.92 18.81C243.447 19.341 242.864 19.7615 242.211 20.0415C241.557 20.3215 240.85 20.4541 240.14 20.43C238.807 20.4792 237.504 20.0259 236.49 19.16C236.016 18.7696 235.636 18.2775 235.378 17.72C235.12 17.1626 234.991 16.5542 235 15.94C234.964 15.233 235.107 14.5283 235.414 13.8906C235.722 13.2529 236.185 12.7025 236.76 12.29C238.286 11.3447 240.068 10.8941 241.86 11H243.7V10.14C243.731 9.54068 243.542 8.9506 243.17 8.48003C242.953 8.25924 242.69 8.08916 242.399 7.98198C242.109 7.87479 241.798 7.83315 241.49 7.86003C240.923 7.82634 240.362 7.99659 239.91 8.34003C239.72 8.50384 239.57 8.70876 239.471 8.93921C239.373 9.16967 239.328 9.4196 239.34 9.67003H235.34C235.338 8.80113 235.619 7.95515 236.14 7.26003C236.723 6.48333 237.508 5.88149 238.41 5.52003C239.452 5.0878 240.572 4.8734 241.7 4.89003C243.283 4.80584 244.844 5.29982 246.09 6.28003C246.639 6.76693 247.07 7.37147 247.352 8.04852C247.635 8.72556 247.76 9.45762 247.72 10.19V16.68C247.664 17.7878 247.866 18.8935 248.31 19.91V20.15H244.32ZM241 17.37C241.567 17.3764 242.127 17.2424 242.63 16.98C243.099 16.747 243.486 16.3774 243.74 15.92V13.34H242.24C240.24 13.34 239.173 14.0334 239.04 15.42V15.65C239.034 15.8812 239.079 16.1108 239.17 16.3232C239.262 16.5355 239.398 16.7255 239.57 16.88C239.964 17.2241 240.478 17.4001 241 17.37Z" fill="#2E2E2E"/>
<path d="M258.7 9.59C258.713 9.35884 258.673 9.12768 258.583 8.9144C258.493 8.70111 258.355 8.51143 258.18 8.36C257.757 8.04406 257.237 7.88816 256.71 7.92C256.148 7.89514 255.591 8.03784 255.11 8.33C254.913 8.45153 254.753 8.62283 254.644 8.82655C254.535 9.03027 254.482 9.25915 254.49 9.49H250.49C250.483 8.84271 250.633 8.20335 250.927 7.62681C251.222 7.05028 251.651 6.5538 252.18 6.18C253.441 5.29244 254.959 4.846 256.5 4.91C258.075 4.8182 259.642 5.19767 261 6C261.53 6.35005 261.961 6.83155 262.251 7.39761C262.54 7.96366 262.677 8.59496 262.65 9.23C262.651 9.88846 262.44 10.5298 262.05 11.06C261.612 11.6492 261.025 12.1116 260.35 12.4C261.135 12.5821 261.83 13.0346 262.315 13.6782C262.799 14.3219 263.042 15.1155 263 15.92C263.013 16.5733 262.858 17.219 262.55 17.7952C262.242 18.3714 261.791 18.8586 261.24 19.21C259.836 20.0918 258.196 20.5212 256.54 20.44C254.928 20.5163 253.335 20.0671 252 19.16C251.441 18.7829 250.987 18.2707 250.679 17.671C250.372 17.0714 250.221 16.4037 250.24 15.73H254.24C254.239 15.976 254.301 16.2183 254.42 16.4336C254.539 16.6489 254.711 16.8302 254.92 16.96C255.447 17.2973 256.065 17.4616 256.69 17.43C257.285 17.4658 257.874 17.2885 258.35 16.93C258.543 16.7743 258.698 16.5759 258.802 16.3504C258.906 16.1248 258.957 15.8783 258.95 15.63C258.974 15.368 258.935 15.1041 258.836 14.8604C258.737 14.6168 258.58 14.4005 258.38 14.23C257.872 13.9144 257.277 13.7674 256.68 13.81H254.51V11.2H256.82C258.073 11.16 258.7 10.6233 258.7 9.59Z" fill="#2E2E2E"/>
<path d="M265.67 20.15V5.15002H271.93C273.565 5.05125 275.193 5.42624 276.62 6.23002C277.14 6.55803 277.564 7.01726 277.851 7.56146C278.137 8.10567 278.274 8.71566 278.25 9.33002C278.252 10.013 278.007 10.6736 277.56 11.19C277.025 11.7919 276.332 12.2318 275.56 12.46C276.503 12.6008 277.384 13.0185 278.09 13.66C278.387 13.941 278.623 14.2809 278.781 14.658C278.939 15.0351 279.017 15.4411 279.01 15.85C279.041 16.47 278.913 17.0876 278.638 17.6442C278.364 18.2007 277.951 18.6778 277.44 19.03C276.063 19.8406 274.475 20.2202 272.88 20.12L265.67 20.15ZM269.67 11.25H272.15C273.55 11.25 274.25 10.8 274.25 9.90002C274.271 9.67295 274.229 9.44453 274.128 9.23988C274.027 9.03523 273.872 8.86227 273.68 8.74002C273.136 8.4771 272.533 8.35994 271.93 8.40002H269.67V11.25ZM269.67 13.94V16.94H272.89C274.303 16.94 275.01 16.45 275.01 15.47C275.01 14.49 274.343 13.9833 273.01 13.95L269.67 13.94Z" fill="#2E2E2E"/>
<path d="M290.47 5.18003H294.47V20.18H290.47V10.91L285.47 20.16H281.47V5.16003H285.47V14.39L290.47 5.18003Z" fill="#2E2E2E"/>
<path d="M310 8.40005H305.2V20.1501H301.2V8.40005H296.48V5.18005H310V8.40005Z" fill="#2E2E2E"/>
<path d="M321 5.18003H325V20.18H321V10.91L316 20.16H312V5.16003H316V14.39L321 5.18003Z" fill="#2E2E2E"/>
<path d="M340.53 5.18005V20.1801H336.53V15.0001H334L331.12 20.1801H327.06L330.33 14.3301C329.499 13.965 328.783 13.3808 328.26 12.6401C327.774 11.9275 327.519 11.0825 327.53 10.2201C327.516 9.5372 327.66 8.86038 327.951 8.2427C328.243 7.62503 328.674 7.08331 329.21 6.66005C330.499 5.67537 332.088 5.16348 333.71 5.21005L340.53 5.18005ZM333.8 12.1801H336.54V8.40005H333.94C333.314 8.37241 332.7 8.57125 332.21 8.96005C332.003 9.12151 331.837 9.32796 331.722 9.56366C331.608 9.79936 331.549 10.0581 331.55 10.3201C331.546 10.5747 331.603 10.8265 331.714 11.0556C331.825 11.2847 331.988 11.4848 332.19 11.6401C332.648 12.0009 333.217 12.1917 333.8 12.1801Z" fill="#2E2E2E"/>
<path d="M59.4599 37.5601H54.2199V41.8501H60.3099V43.1501H52.6299V31.0601H60.2299V32.3601H54.2299V36.2501H59.4699L59.4599 37.5601Z" fill="#2E2E2E"/>
<path d="M62 41.9L62.53 41.24C63.2024 40.2018 63.5506 38.9868 63.53 37.75L63.67 34.16H69.46V41.9H70.61V45.8H69.08V43.15H62.81V45.79H61.27V41.9H62ZM63.82 41.9H67.95V35.59H65.16L65.07 37.73C65.0725 39.2157 64.6302 40.668 63.8 41.9H63.82Z" fill="#2E2E2E"/>
<path d="M78.1297 34.17H79.6697V43.17H78.1297V36.6L73.9997 43.15H72.4497V34.15H73.9997V40.71L78.1297 34.17Z" fill="#2E2E2E"/>
<path d="M89.4698 43.15H87.9398V39.32H83.8098V43.16H82.2598V34.16H83.7998V38.06H87.9298V34.16H89.4698V43.15Z" fill="#2E2E2E"/>
<path d="M91.5298 38.58C91.5163 37.7571 91.6944 36.9423 92.0498 36.2C92.3641 35.5302 92.8638 34.9645 93.4898 34.57C94.1282 34.183 94.8634 33.9853 95.6098 34C96.1728 33.9754 96.7342 34.0766 97.2532 34.2963C97.7722 34.516 98.2356 34.8486 98.6098 35.27C99.3982 36.2144 99.8017 37.4213 99.7398 38.65V38.76C99.7534 39.5711 99.5825 40.3747 99.2398 41.11C98.9268 41.7781 98.4265 42.3408 97.7998 42.73C97.1525 43.123 96.4069 43.3241 95.6498 43.31C95.0867 43.3354 94.525 43.2345 94.006 43.0148C93.4869 42.7951 93.0235 42.462 92.6498 42.04C91.8644 41.1018 91.461 39.9022 91.5198 38.68L91.5298 38.58ZM93.0698 38.76C93.026 39.6146 93.2688 40.4593 93.7598 41.16C93.9794 41.4444 94.2612 41.6746 94.5836 41.833C94.9061 41.9914 95.2606 42.0738 95.6198 42.0738C95.979 42.0738 96.3335 41.9914 96.656 41.833C96.9784 41.6746 97.2602 41.4444 97.4798 41.16C97.9823 40.4008 98.2244 39.4988 98.1698 38.59C98.2107 37.7343 97.9643 36.8896 97.4698 36.19C97.2576 35.8974 96.9773 35.6608 96.6533 35.5005C96.3293 35.3402 95.9712 35.2611 95.6098 35.27C95.2532 35.2604 94.8996 35.3373 94.5792 35.494C94.2588 35.6507 93.9811 35.8827 93.7698 36.17C93.261 36.9339 93.0185 37.8443 93.0798 38.76H93.0698Z" fill="#2E2E2E"/>
<path d="M105.37 43.32C104.813 43.344 104.258 43.2495 103.741 43.0426C103.223 42.8357 102.756 42.5212 102.37 42.12C101.976 41.6868 101.672 41.1803 101.475 40.6295C101.278 40.0787 101.191 39.4944 101.22 38.91V38.63C101.205 37.8048 101.379 36.9871 101.73 36.24C102.046 35.5717 102.541 35.004 103.16 34.6C103.753 34.2098 104.449 34.0045 105.16 34.01C105.671 33.9826 106.181 34.072 106.652 34.2712C107.124 34.4705 107.543 34.7744 107.88 35.16C108.596 36.1093 108.951 37.2829 108.88 38.47V39.11H102.79C102.776 39.8983 103.054 40.6639 103.57 41.26C103.806 41.5263 104.097 41.7376 104.424 41.8793C104.75 42.0209 105.104 42.0894 105.46 42.08C105.941 42.096 106.418 41.982 106.84 41.75C107.227 41.524 107.566 41.2252 107.84 40.87L108.78 41.6C108.416 42.1644 107.908 42.6214 107.309 42.9238C106.709 43.2262 106.04 43.363 105.37 43.32ZM105.18 35.26C104.886 35.2517 104.593 35.3083 104.324 35.4258C104.054 35.5434 103.814 35.7189 103.62 35.94C103.164 36.4739 102.89 37.1397 102.84 37.84H107.34V37.72C107.339 37.063 107.117 36.4253 106.71 35.91C106.519 35.6945 106.283 35.5243 106.018 35.4118C105.754 35.2994 105.467 35.2475 105.18 35.26Z" fill="#2E2E2E"/>
<path d="M114.45 38.58C114.446 37.7547 114.634 36.9398 115 36.2C115.314 35.5302 115.814 34.9645 116.44 34.57C117.075 34.1849 117.807 33.9872 118.55 34C119.113 33.9754 119.674 34.0766 120.193 34.2963C120.712 34.516 121.176 34.8486 121.55 35.27C122.338 36.2144 122.742 37.4213 122.68 38.65V38.76C122.693 39.5711 122.522 40.3747 122.18 41.11C121.867 41.7781 121.366 42.3408 120.74 42.73C120.092 43.123 119.347 43.3241 118.59 43.31C118.027 43.3354 117.465 43.2345 116.946 43.0148C116.427 42.7951 115.963 42.462 115.59 42.04C114.804 41.1018 114.401 39.9022 114.46 38.68L114.45 38.58ZM115.99 38.76C115.946 39.6146 116.189 40.4593 116.68 41.16C116.899 41.4444 117.181 41.6746 117.504 41.833C117.826 41.9914 118.181 42.0738 118.54 42.0738C118.899 42.0738 119.253 41.9914 119.576 41.833C119.898 41.6746 120.18 41.4444 120.4 41.16C120.902 40.4008 121.144 39.4988 121.09 38.59C121.131 37.7343 120.884 36.8896 120.39 36.19C120.178 35.8974 119.897 35.6608 119.573 35.5005C119.249 35.3402 118.891 35.2611 118.53 35.27C118.173 35.2604 117.82 35.3373 117.499 35.494C117.179 35.6507 116.901 35.8827 116.69 36.17C116.181 36.9339 115.938 37.8443 116 38.76H115.99Z" fill="#2E2E2E"/>
<path d="M127.36 39.32H126.24V43.15H124.7V34.15H126.24V38H127.24L130.24 34.2H132.1L128.55 38.52L132.4 43.19H130.4L127.36 39.32Z" fill="#2E2E2E"/>
<path d="M141.09 43.15H139.55V39.32H135.42V43.16H133.88V34.16H135.42V38.06H139.55V34.16H141.09V43.15Z" fill="#2E2E2E"/>
<path d="M143.15 38.58C143.137 37.7571 143.315 36.9423 143.67 36.2C143.988 35.5292 144.491 34.9635 145.12 34.57C145.755 34.1843 146.487 33.9867 147.23 34C147.793 33.9754 148.355 34.0766 148.874 34.2963C149.392 34.516 149.856 34.8486 150.23 35.27C151.019 36.2144 151.422 37.4213 151.36 38.65V38.76C151.374 39.5711 151.203 40.3747 150.86 41.11C150.547 41.7777 150.046 42.3404 149.42 42.73C148.773 43.123 148.027 43.3241 147.27 43.31C146.707 43.3354 146.145 43.2345 145.626 43.0148C145.107 42.7951 144.644 42.462 144.27 42.04C143.484 41.1023 143.08 39.9024 143.14 38.68L143.15 38.58ZM144.69 38.76C144.646 39.6146 144.889 40.4593 145.38 41.16C145.6 41.4444 145.881 41.6746 146.204 41.833C146.526 41.9914 146.881 42.0738 147.24 42.0738C147.599 42.0738 147.954 41.9914 148.276 41.833C148.599 41.6746 148.881 41.4444 149.1 41.16C149.603 40.4008 149.845 39.4988 149.79 38.59C149.831 37.7343 149.585 36.8896 149.09 36.19C148.878 35.8974 148.598 35.6608 148.274 35.5005C147.95 35.3402 147.591 35.2611 147.23 35.27C146.875 35.2621 146.524 35.3397 146.205 35.4963C145.887 35.653 145.61 35.8841 145.4 36.17C144.884 36.9314 144.635 37.842 144.69 38.76Z" fill="#2E2E2E"/>
<path d="M161.07 42.06C161.594 42.0694 162.104 41.8922 162.51 41.56C162.705 41.4109 162.866 41.2226 162.983 41.0072C163.1 40.7919 163.17 40.5544 163.19 40.31H164.64C164.607 40.8405 164.423 41.3505 164.11 41.78C163.772 42.253 163.322 42.6345 162.8 42.89C162.265 43.1661 161.672 43.3101 161.07 43.31C160.523 43.334 159.977 43.2361 159.472 43.0234C158.967 42.8107 158.515 42.4885 158.15 42.08C157.386 41.1366 157.001 39.9421 157.07 38.73V38.47C157.055 37.6674 157.219 36.8714 157.55 36.14C157.844 35.4863 158.324 34.9334 158.93 34.55C159.572 34.1641 160.311 33.9699 161.06 33.99C161.982 33.9604 162.881 34.2862 163.57 34.9C163.9 35.1974 164.165 35.5595 164.349 35.9638C164.533 36.3681 164.632 36.8059 164.64 37.25H163.19C163.162 36.7063 162.925 36.1942 162.53 35.82C162.334 35.6345 162.103 35.4895 161.851 35.3934C161.599 35.2973 161.33 35.252 161.06 35.26C160.713 35.2433 160.367 35.311 160.052 35.4573C159.736 35.6036 159.461 35.8241 159.25 36.1C158.779 36.823 158.555 37.6789 158.61 38.54V38.83C158.557 39.6752 158.782 40.5145 159.25 41.22C159.463 41.4967 159.74 41.7176 160.057 41.8639C160.374 42.0102 160.721 42.0775 161.07 42.06Z" fill="#2E2E2E"/>
<path d="M169.31 40.9001L171.4 34.1601H173L169.39 44.5301C168.83 46.0234 167.94 46.7701 166.72 46.7701H166.43L165.86 46.6601V45.4001H166.28C166.711 45.4278 167.139 45.3155 167.5 45.0801C167.851 44.7787 168.102 44.3776 168.22 43.9301L168.56 43.0201L165.35 34.1301H167.03L169.31 40.9001Z" fill="#2E2E2E"/>
<path d="M178.36 34.68C178.867 34.6582 179.372 34.748 179.841 34.9433C180.309 35.1386 180.729 35.4345 181.07 35.81C181.772 36.6467 182.13 37.7193 182.07 38.81V38.95C182.084 39.7344 181.916 40.5112 181.58 41.22C181.272 41.8641 180.782 42.4032 180.17 42.77C179.531 43.1452 178.801 43.3356 178.06 43.32C177.514 43.3424 176.971 43.2457 176.466 43.0368C175.962 42.8278 175.51 42.5116 175.14 42.11C174.372 41.2106 173.978 40.051 174.04 38.87V38.12C173.961 36.5513 174.325 34.992 175.09 33.62C175.431 33.0822 175.885 32.6248 176.42 32.2795C176.955 31.9341 177.559 31.7092 178.19 31.62C178.742 31.5577 179.276 31.3842 179.76 31.11C179.889 31.016 179.993 30.8924 180.064 30.7498C180.136 30.6071 180.172 30.4495 180.17 30.29H181.43C181.465 30.8681 181.299 31.4404 180.96 31.91C180.566 32.3434 180.037 32.6321 179.46 32.73L178.31 32.99C177.547 33.1159 176.84 33.4677 176.28 34C175.8 34.5693 175.492 35.2627 175.39 36C175.756 35.5735 176.212 35.2338 176.726 35.0055C177.24 34.7772 177.798 34.666 178.36 34.68ZM178.06 35.94C177.724 35.9255 177.389 35.9862 177.079 36.1177C176.769 36.2491 176.493 36.4481 176.27 36.7C175.797 37.2979 175.562 38.0494 175.61 38.81V38.94C175.566 39.7574 175.802 40.5654 176.28 41.23C176.501 41.4948 176.778 41.7077 177.091 41.8538C177.404 41.9999 177.745 42.0756 178.09 42.0756C178.435 42.0756 178.776 41.9999 179.089 41.8538C179.401 41.7077 179.678 41.4948 179.9 41.23C180.384 40.5011 180.616 39.6334 180.56 38.76C180.586 38.0342 180.348 37.3236 179.89 36.76C179.667 36.4935 179.386 36.2811 179.069 36.1391C178.752 35.997 178.407 35.9289 178.06 35.94Z" fill="#2E2E2E"/>
<path d="M187.42 42.06C187.944 42.0694 188.454 41.8922 188.86 41.56C189.054 41.4109 189.215 41.2226 189.333 41.0072C189.45 40.7919 189.52 40.5544 189.54 40.31H191C190.967 40.8405 190.783 41.3505 190.47 41.78C190.132 42.253 189.682 42.6345 189.16 42.89C188.625 43.1661 188.032 43.3101 187.43 43.31C186.882 43.334 186.336 43.2361 185.832 43.0234C185.327 42.8107 184.875 42.4885 184.51 42.08C183.746 41.1366 183.361 39.9421 183.43 38.73V38.47C183.415 37.6674 183.579 36.8714 183.91 36.14C184.204 35.4863 184.684 34.9334 185.29 34.55C185.932 34.1641 186.671 33.9699 187.42 33.99C188.342 33.9604 189.241 34.2862 189.93 34.9C190.261 35.1986 190.527 35.5623 190.711 35.9684C190.895 36.3745 190.993 36.8142 191 37.26H189.55C189.522 36.7163 189.285 36.2042 188.89 35.83C188.694 35.6445 188.463 35.4995 188.211 35.4034C187.958 35.3073 187.69 35.262 187.42 35.27C187.073 35.2533 186.727 35.321 186.411 35.4673C186.096 35.6136 185.821 35.8341 185.61 36.11C185.139 36.833 184.914 37.6889 184.97 38.55V38.84C184.917 39.6852 185.141 40.5245 185.61 41.23C185.823 41.5034 186.098 41.7216 186.413 41.866C186.729 42.0105 187.074 42.077 187.42 42.06Z" fill="#2E2E2E"/>
<path d="M198.53 34.17H200.07V43.17H198.53V36.6L194.39 43.15H192.85V34.15H194.39V40.71L198.53 34.17Z" fill="#2E2E2E"/>
<path d="M202.46 41.9L202.99 41.24C203.663 40.202 204.011 38.9869 203.99 37.75L204.13 34.16H209.92V41.9H211.07V45.8H209.53V43.15H203.26V45.79H201.72V41.9H202.46ZM204.28 41.9H208.41V35.59H205.64L205.55 37.73C205.553 39.2157 205.11 40.6683 204.28 41.9Z" fill="#2E2E2E"/>
<path d="M218.61 34.17H220.15V43.17H218.61V36.6L214.47 43.15H212.93V34.15H214.47V40.71L218.61 34.17Z" fill="#2E2E2E"/>
<path d="M230.2 38.76C230.257 39.9365 229.927 41.0993 229.26 42.07C228.972 42.4713 228.59 42.7954 228.147 43.0134C227.703 43.2315 227.213 43.3368 226.72 43.32C226.245 43.3492 225.769 43.2749 225.325 43.1023C224.881 42.9296 224.48 42.6627 224.15 42.32V46.65H222.61V34.17H224L224.07 35.17C224.385 34.7813 224.787 34.4726 225.244 34.2693C225.702 34.0659 226.2 33.9737 226.7 34C227.193 33.9825 227.684 34.0843 228.129 34.2967C228.575 34.5091 228.963 34.8258 229.26 35.22C229.942 36.2175 230.273 37.4137 230.2 38.62V38.76ZM228.66 38.59C228.704 37.7413 228.476 36.9006 228.01 36.19C227.809 35.9072 227.542 35.6787 227.231 35.5251C226.92 35.3715 226.576 35.2976 226.23 35.31C225.8 35.2962 225.374 35.4055 225.004 35.6252C224.634 35.8449 224.334 36.1657 224.14 36.55V40.84C224.337 41.2256 224.64 41.5465 225.014 41.7646C225.388 41.9826 225.817 42.0886 226.25 42.07C226.593 42.08 226.933 42.0048 227.241 41.8513C227.548 41.6977 227.812 41.4706 228.01 41.19C228.502 40.4122 228.733 39.498 228.67 38.58L228.66 38.59Z" fill="#2E2E2E"/>
<path d="M231.75 38.58C231.736 37.7571 231.914 36.9423 232.27 36.2C232.587 35.5292 233.09 34.9635 233.72 34.57C234.355 34.1843 235.087 33.9867 235.83 34C236.393 33.9754 236.954 34.0766 237.473 34.2963C237.992 34.516 238.456 34.8486 238.83 35.27C239.618 36.2144 240.022 37.4213 239.96 38.65V38.76C239.973 39.5711 239.802 40.3747 239.46 41.11C239.142 41.7841 238.635 42.3507 238 42.74C237.352 43.133 236.607 43.3341 235.85 43.32C235.287 43.3454 234.725 43.2445 234.206 43.0248C233.687 42.8051 233.223 42.472 232.85 42.05C232.063 41.1122 231.66 39.9124 231.72 38.69L231.75 38.58ZM233.29 38.76C233.246 39.6146 233.489 40.4593 233.98 41.16C234.199 41.4444 234.481 41.6746 234.804 41.833C235.126 41.9914 235.48 42.0738 235.84 42.0738C236.199 42.0738 236.553 41.9914 236.876 41.833C237.198 41.6746 237.48 41.4444 237.7 41.16C238.202 40.4008 238.444 39.4988 238.39 38.59C238.431 37.7343 238.184 36.8896 237.69 36.19C237.477 35.8974 237.197 35.6608 236.873 35.5005C236.549 35.3402 236.191 35.2611 235.83 35.27C235.475 35.2621 235.123 35.3397 234.805 35.4963C234.486 35.653 234.21 35.8841 234 36.17C233.484 36.9314 233.234 37.842 233.29 38.76Z" fill="#2E2E2E"/>
<path d="M242 43.15V34.15H245.5C246.458 34.0917 247.413 34.3104 248.25 34.78C248.566 34.9693 248.825 35.2399 249.001 35.5635C249.177 35.8871 249.263 36.252 249.25 36.62C249.255 37.0273 249.125 37.4247 248.88 37.75C248.598 38.11 248.215 38.378 247.78 38.52C248.285 38.6259 248.743 38.8884 249.09 39.27C249.415 39.6357 249.59 40.1108 249.58 40.6C249.599 40.9661 249.525 41.3309 249.366 41.6611C249.207 41.9913 248.968 42.2763 248.67 42.49C247.903 42.973 247.005 43.2037 246.1 43.15H242ZM243.53 38H245.53C246.97 38 247.69 37.58 247.69 36.74C247.69 35.9 247.023 35.4667 245.69 35.44H243.59L243.53 38ZM243.53 39.23V41.94H246.07C246.576 41.9752 247.08 41.8492 247.51 41.58C247.666 41.4655 247.791 41.3143 247.875 41.14C247.959 40.9656 247.998 40.7733 247.99 40.58C247.99 39.68 247.323 39.23 245.99 39.23H243.53Z" fill="#2E2E2E"/>
<path d="M257.12 43.15C256.999 42.8463 256.925 42.526 256.9 42.2C256.575 42.5541 256.179 42.8359 255.738 43.0271C255.297 43.2183 254.821 43.3147 254.34 43.31C253.545 43.3425 252.767 43.0748 252.16 42.56C251.885 42.325 251.666 42.0316 251.519 41.7011C251.372 41.3707 251.3 41.0116 251.31 40.65C251.292 40.2262 251.381 39.8047 251.567 39.4239C251.754 39.0431 252.034 38.7152 252.38 38.47C253.272 37.8988 254.323 37.6257 255.38 37.69H256.88V37C256.891 36.7653 256.854 36.5307 256.772 36.3106C256.689 36.0905 256.563 35.8896 256.4 35.72C256.207 35.5498 255.982 35.4198 255.738 35.3374C255.494 35.2549 255.237 35.2219 254.98 35.24C254.486 35.224 254.001 35.3717 253.6 35.66C253.432 35.7681 253.293 35.9158 253.195 36.0902C253.097 36.2646 253.044 36.4602 253.04 36.66H251.5C251.51 36.1852 251.679 35.7274 251.98 35.36C252.321 34.9214 252.768 34.5771 253.28 34.36C253.847 34.1102 254.46 33.9841 255.08 33.99C255.959 33.9398 256.825 34.2178 257.51 34.77C257.806 35.0407 258.041 35.3719 258.198 35.7411C258.355 36.1103 258.43 36.509 258.42 36.91V41.05C258.389 41.7316 258.498 42.4122 258.74 43.05V43.18L257.12 43.15ZM254.57 42C255.051 42.0011 255.524 41.8733 255.94 41.63C256.349 41.4017 256.677 41.0524 256.88 40.63V38.79H255.67C253.79 38.79 252.85 39.34 252.85 40.44C252.839 40.6525 252.876 40.8647 252.959 41.0605C253.043 41.2563 253.169 41.4305 253.33 41.57C253.677 41.8601 254.118 42.0131 254.57 42Z" fill="#2E2E2E"/>
<path d="M268.16 43.15H266.62V39.32H262.5V43.16H261V34.16H262.54V38.06H266.67V34.16H268.21L268.16 43.15Z" fill="#2E2E2E"/>
<path d="M276.44 34.17H278V43.17H276.46V36.6L272.32 43.15H270.78V34.15H272.32V40.71L276.44 34.17Z" fill="#2E2E2E"/>
<path d="M287.31 34.17V43.17H285.77V39.67H283.45L281.33 43.17H279.67L281.93 39.44C281.392 39.2563 280.926 38.906 280.6 38.44C280.29 37.9873 280.129 37.4488 280.14 36.9C280.125 36.5178 280.201 36.1374 280.36 35.7899C280.52 35.4423 280.76 35.1375 281.06 34.9C281.77 34.3682 282.643 34.0996 283.53 34.14L287.31 34.17ZM281.69 36.93C281.683 37.1289 281.719 37.3269 281.797 37.51C281.875 37.6932 281.992 37.857 282.14 37.99C282.472 38.2704 282.896 38.4167 283.33 38.4H285.77V35.4H283.56C283.071 35.3749 282.589 35.5237 282.2 35.82C282.035 35.9509 281.903 36.1186 281.814 36.3096C281.726 36.5006 281.683 36.7096 281.69 36.92V36.93Z" fill="#2E2E2E"/>
<path d="M299.8 34.17H301.34V43.17H299.8V36.6L295.66 43.15H294.12V34.15H295.66V40.71L299.8 34.17Z" fill="#2E2E2E"/>
<path d="M311.15 43.15H309.61V39.32H305.48V43.16H303.94V34.16H305.48V38.06H309.61V34.16H311.15V43.15Z" fill="#2E2E2E"/>
<path d="M321 43.15H319.46V39.32H315.33V43.16H313.79V34.16H315.33V38.06H319.46V34.16H321V43.15Z" fill="#2E2E2E"/>
<path d="M323 38.58C322.986 37.7571 323.164 36.9423 323.52 36.2C323.845 35.5252 324.36 34.9591 325 34.57C325.635 34.1843 326.367 33.9867 327.11 34C327.673 33.9754 328.234 34.0766 328.753 34.2963C329.272 34.516 329.736 34.8486 330.11 35.27C330.898 36.2144 331.302 37.4213 331.24 38.65V38.76C331.254 39.5711 331.083 40.3747 330.74 41.11C330.426 41.7777 329.926 42.3404 329.3 42.73C328.653 43.123 327.907 43.3241 327.15 43.31C326.587 43.3354 326.025 43.2345 325.506 43.0148C324.987 42.7951 324.524 42.462 324.15 42.04C323.356 41.1052 322.946 39.905 323 38.68V38.58ZM324.54 38.76C324.496 39.6146 324.739 40.4593 325.23 41.16C325.449 41.4444 325.731 41.6746 326.054 41.833C326.376 41.9914 326.731 42.0738 327.09 42.0738C327.449 42.0738 327.804 41.9914 328.126 41.833C328.448 41.6746 328.73 41.4444 328.95 41.16C329.452 40.4008 329.695 39.4988 329.64 38.59C329.681 37.7343 329.434 36.8896 328.94 36.19C328.728 35.8974 328.447 35.6608 328.123 35.5005C327.799 35.3402 327.441 35.2611 327.08 35.27C326.725 35.2621 326.373 35.3397 326.055 35.4963C325.736 35.653 325.46 35.8841 325.25 36.17C324.741 36.9339 324.499 37.8443 324.56 38.76H324.54Z" fill="#2E2E2E"/>
<path d="M333.26 43.15V34.15H336.76C337.718 34.0917 338.673 34.3104 339.51 34.78C339.826 34.9693 340.085 35.2399 340.261 35.5635C340.437 35.8871 340.523 36.252 340.51 36.62C340.515 37.0273 340.385 37.4247 340.14 37.75C339.857 38.11 339.475 38.378 339.04 38.52C339.544 38.6259 340.003 38.8884 340.35 39.27C340.675 39.6357 340.85 40.1108 340.84 40.6C340.858 40.9661 340.785 41.3309 340.626 41.6611C340.467 41.9913 340.227 42.2763 339.93 42.49C339.163 42.973 338.264 43.2037 337.36 43.15H333.26ZM334.8 38H336.8C338.24 38 338.96 37.58 338.96 36.74C338.96 35.9 338.293 35.4667 336.96 35.44H334.86L334.8 38ZM334.8 39.23V41.94H337.34C337.846 41.9752 338.35 41.8492 338.78 41.58C338.936 41.4655 339.061 41.3143 339.145 41.14C339.228 40.9656 339.268 40.7733 339.26 40.58C339.26 39.68 338.593 39.23 337.26 39.23H334.8Z" fill="#2E2E2E"/>
<path d="M348.39 43.15C348.269 42.8463 348.195 42.526 348.17 42.2C347.845 42.5541 347.449 42.8359 347.008 43.0271C346.567 43.2183 346.091 43.3147 345.61 43.31C344.815 43.3425 344.037 43.0748 343.43 42.56C343.155 42.325 342.936 42.0316 342.789 41.7011C342.642 41.3707 342.571 41.0116 342.58 40.65C342.562 40.2262 342.651 39.8047 342.837 39.4239C343.024 39.0431 343.304 38.7152 343.65 38.47C344.542 37.8988 345.593 37.6257 346.65 37.69H348.15V37C348.161 36.7653 348.124 36.5307 348.042 36.3106C347.959 36.0905 347.833 35.8896 347.67 35.72C347.477 35.5498 347.252 35.4198 347.008 35.3374C346.764 35.2549 346.507 35.2219 346.25 35.24C345.756 35.224 345.271 35.3717 344.87 35.66C344.702 35.7681 344.563 35.9158 344.465 36.0902C344.368 36.2646 344.314 36.4602 344.31 36.66H342.77C342.78 36.1852 342.949 35.7274 343.25 35.36C343.591 34.9214 344.038 34.5771 344.55 34.36C345.117 34.1102 345.73 33.9841 346.35 33.99C347.229 33.9398 348.095 34.2178 348.78 34.77C349.076 35.0407 349.311 35.3719 349.468 35.7411C349.625 36.1103 349.7 36.509 349.69 36.91V41.05C349.659 41.7316 349.768 42.4122 350.01 43.05V43.18L348.39 43.15ZM345.84 42C346.321 42.0011 346.794 41.8733 347.21 41.63C347.619 41.4017 347.947 41.0524 348.15 40.63V38.79H346.94C345.06 38.79 344.12 39.34 344.12 40.44C344.109 40.6525 344.146 40.8647 344.229 41.0605C344.313 41.2563 344.439 41.4305 344.6 41.57C344.947 41.8601 345.388 42.0131 345.84 42Z" fill="#2E2E2E"/>
<path d="M352.22 34.17H353.76V41.9H357.9V34.17H359.44V41.9H360.51L360.36 45.82H359V43.15H352.24L352.22 34.17Z" fill="#2E2E2E"/>
<path d="M368 34.17H369.54V43.17H368V36.6L363.86 43.15H362.3V34.15H363.84V40.71L368 34.17Z" fill="#2E2E2E"/>
<path d="M371.57 38.58C371.557 37.7571 371.735 36.9423 372.09 36.2C372.408 35.5292 372.911 34.9635 373.54 34.57C374.175 34.1843 374.907 33.9867 375.65 34C376.213 33.9754 376.774 34.0766 377.293 34.2963C377.812 34.516 378.276 34.8486 378.65 35.27C379.438 36.2144 379.842 37.4213 379.78 38.65V38.76C379.794 39.5711 379.623 40.3747 379.28 41.11C378.966 41.7777 378.466 42.3404 377.84 42.73C377.193 43.123 376.447 43.3241 375.69 43.31C375.127 43.3354 374.565 43.2345 374.046 43.0148C373.527 42.7951 373.064 42.462 372.69 42.04C371.904 41.1023 371.5 39.9024 371.56 38.68L371.57 38.58ZM373.11 38.76C373.066 39.6146 373.309 40.4593 373.8 41.16C374.02 41.4444 374.301 41.6746 374.624 41.833C374.946 41.9914 375.301 42.0738 375.66 42.0738C376.019 42.0738 376.374 41.9914 376.696 41.833C377.019 41.6746 377.3 41.4444 377.52 41.16C378.022 40.4008 378.265 39.4988 378.21 38.59C378.251 37.7343 378.005 36.8896 377.51 36.19C377.298 35.8974 377.018 35.6608 376.694 35.5005C376.37 35.3402 376.011 35.2611 375.65 35.27C375.295 35.2621 374.944 35.3397 374.625 35.4963C374.306 35.653 374.03 35.8841 373.82 36.17C373.308 36.9327 373.062 37.8432 373.12 38.76H373.11Z" fill="#2E2E2E"/>
<path d="M389 43.15H387.46V39.32H383.33V43.16H381.79V34.16H383.33V38.06H387.46V34.16H389V43.15Z" fill="#2E2E2E"/>
<path d="M398.83 43.15H397.29V39.32H393.16V43.16H391.62V34.16H393.16V38.06H397.29V34.16H398.83V43.15Z" fill="#2E2E2E"/>
<path d="M403 37.26H405.33C406.207 37.2226 407.068 37.5072 407.75 38.06C408.046 38.3252 408.28 38.653 408.434 39.0197C408.588 39.3864 408.658 39.7828 408.64 40.18C408.657 40.5849 408.584 40.9884 408.426 41.3618C408.269 41.7352 408.031 42.0693 407.73 42.34C407.041 42.9093 406.162 43.1984 405.27 43.15H401.47V34.15H403V37.26ZM403 38.51V41.9H405.28C405.767 41.9328 406.247 41.775 406.62 41.46C406.78 41.3016 406.905 41.1109 406.986 40.9006C407.067 40.6902 407.102 40.4651 407.09 40.24C407.098 40.0163 407.061 39.7933 406.982 39.5839C406.903 39.3744 406.783 39.1828 406.63 39.02C406.459 38.8556 406.256 38.7275 406.035 38.6433C405.813 38.5591 405.577 38.5206 405.34 38.53L403 38.51ZM411.84 43.14H410.3V34.14H411.84V43.14Z" fill="#2E2E2E"/>
<path d="M417.51 37.45L419.51 34.17H421.3L418.36 38.61L421.36 43.15H419.58L417.5 39.79L415.42 43.15H413.63L416.63 38.61L413.69 34.17H415.47L417.51 37.45Z" fill="#2E2E2E"/>
<path d="M434.49 43.15H433V35.44H428.86V43.15H427.32V34.15H434.54L434.49 43.15Z" fill="#2E2E2E"/>
<path d="M444.54 38.76C444.597 39.9365 444.267 41.0993 443.6 42.07C443.312 42.4713 442.93 42.7954 442.487 43.0135C442.044 43.2315 441.554 43.3368 441.06 43.32C440.585 43.3492 440.109 43.2749 439.665 43.1023C439.221 42.9296 438.82 42.6627 438.49 42.32V46.65H437V34.17H438.4L438.47 35.17C438.775 34.7951 439.161 34.4948 439.599 34.292C440.038 34.0892 440.517 33.9894 441 34C441.493 33.9826 441.984 34.0843 442.429 34.2967C442.875 34.5091 443.263 34.8258 443.56 35.22C444.242 36.2175 444.573 37.4137 444.5 38.62L444.54 38.76ZM443 38.58C443.044 37.7313 442.816 36.8907 442.35 36.18C442.15 35.8972 441.882 35.6688 441.571 35.5151C441.26 35.3615 440.916 35.2876 440.57 35.3C440.14 35.2862 439.714 35.3955 439.344 35.6152C438.974 35.8349 438.674 36.1557 438.48 36.54V40.83C438.677 41.2156 438.98 41.5365 439.355 41.7546C439.729 41.9727 440.157 42.0787 440.59 42.06C440.933 42.07 441.274 41.9949 441.581 41.8413C441.888 41.6878 442.152 41.4606 442.35 41.18C442.836 40.4039 443.064 39.4936 443 38.58Z" fill="#2E2E2E"/>
<path d="M446.09 38.58C446.077 37.7571 446.255 36.9423 446.61 36.2C446.928 35.5292 447.431 34.9635 448.06 34.57C448.695 34.1843 449.427 33.9867 450.17 34C450.733 33.9754 451.294 34.0766 451.813 34.2963C452.332 34.516 452.796 34.8486 453.17 35.27C453.958 36.2144 454.362 37.4213 454.3 38.65V38.76C454.314 39.5711 454.143 40.3747 453.8 41.11C453.487 41.7777 452.986 42.3404 452.36 42.73C451.713 43.123 450.967 43.3241 450.21 43.31C449.647 43.3354 449.085 43.2345 448.566 43.0148C448.047 42.7951 447.584 42.462 447.21 42.04C446.424 41.1023 446.02 39.9024 446.08 38.68L446.09 38.58ZM447.63 38.76C447.586 39.6146 447.829 40.4593 448.32 41.16C448.54 41.4444 448.821 41.6746 449.144 41.833C449.466 41.9914 449.821 42.0738 450.18 42.0738C450.539 42.0738 450.894 41.9914 451.216 41.833C451.539 41.6746 451.82 41.4444 452.04 41.16C452.543 40.4008 452.785 39.4988 452.73 38.59C452.771 37.7343 452.525 36.8896 452.03 36.19C451.818 35.8974 451.538 35.6608 451.214 35.5005C450.89 35.3402 450.531 35.2611 450.17 35.27C449.815 35.2621 449.464 35.3397 449.145 35.4963C448.826 35.653 448.55 35.8841 448.34 36.17C447.824 36.9314 447.575 37.842 447.63 38.76Z" fill="#2E2E2E"/>
<path d="M459.93 43.32C459.374 43.344 458.818 43.2495 458.301 43.0426C457.784 42.8357 457.317 42.5212 456.93 42.12C456.137 41.2446 455.723 40.0901 455.78 38.91V38.63C455.765 37.8048 455.939 36.9871 456.29 36.24C456.606 35.5717 457.101 35.004 457.72 34.6C458.314 34.2098 459.01 34.0045 459.72 34.01C460.231 33.9826 460.741 34.072 461.213 34.2712C461.684 34.4705 462.104 34.7744 462.44 35.16C463.156 36.1093 463.511 37.2829 463.44 38.47V39.11H457.35C457.336 39.8983 457.614 40.6639 458.13 41.26C458.366 41.5263 458.658 41.7376 458.984 41.8793C459.311 42.0209 459.664 42.0894 460.02 42.08C460.501 42.096 460.978 41.982 461.4 41.75C461.787 41.524 462.127 41.2252 462.4 40.87L463.34 41.6C462.976 42.1644 462.469 42.6214 461.869 42.9238C461.27 43.2262 460.6 43.363 459.93 43.32ZM459.74 35.26C459.447 35.255 459.155 35.3132 458.886 35.4305C458.617 35.5478 458.376 35.7216 458.18 35.94C457.724 36.4739 457.451 37.1397 457.4 37.84H461.9V37.72C461.899 37.0631 461.677 36.4257 461.27 35.91C461.079 35.6932 460.841 35.5222 460.574 35.4096C460.308 35.2971 460.019 35.246 459.73 35.26H459.74Z" fill="#2E2E2E"/>
<path d="M468 39.32H466.88V43.15H465.34V34.15H466.88V38H467.88L470.88 34.2H472.74L469.19 38.52L473.04 43.19H471.04L468 39.32Z" fill="#2E2E2E"/>
<path d="M481.07 35.41H478.07V43.15H476.53V35.41H473.53V34.17H481.04L481.07 35.41Z" fill="#2E2E2E"/>
<path d="M481.81 38.58C481.796 37.7571 481.974 36.9423 482.33 36.2C482.647 35.5292 483.15 34.9635 483.78 34.57C484.415 34.1843 485.147 33.9867 485.89 34C486.453 33.9754 487.014 34.0766 487.533 34.2963C488.052 34.516 488.516 34.8486 488.89 35.27C489.671 36.2174 490.067 37.424 490 38.65V38.76C490.013 39.5711 489.842 40.3747 489.5 41.11C489.172 41.7896 488.65 42.3568 488 42.74C487.352 43.133 486.607 43.3341 485.85 43.32C485.287 43.3454 484.725 43.2445 484.206 43.0248C483.687 42.8051 483.223 42.472 482.85 42.05C482.063 41.1122 481.66 39.9124 481.72 38.69L481.81 38.58ZM483.35 38.76C483.306 39.6146 483.549 40.4593 484.04 41.16C484.259 41.4444 484.541 41.6746 484.864 41.833C485.186 41.9914 485.54 42.0738 485.9 42.0738C486.259 42.0738 486.613 41.9914 486.936 41.833C487.258 41.6746 487.54 41.4444 487.76 41.16C488.262 40.4008 488.504 39.4988 488.45 38.59C488.491 37.7343 488.244 36.8896 487.75 36.19C487.537 35.8974 487.257 35.6608 486.933 35.5005C486.609 35.3402 486.251 35.2611 485.89 35.27C485.535 35.2621 485.183 35.3397 484.865 35.4963C484.546 35.653 484.27 35.8841 484.06 36.17C483.544 36.9314 483.294 37.842 483.35 38.76Z" fill="#2E2E2E"/>
<path d="M492.06 43.15V34.15H495.56C496.518 34.0917 497.473 34.3104 498.31 34.78C498.626 34.9693 498.885 35.2399 499.061 35.5635C499.237 35.8871 499.323 36.252 499.31 36.62C499.315 37.0273 499.185 37.4247 498.94 37.75C498.658 38.11 498.275 38.378 497.84 38.52C498.345 38.6259 498.803 38.8884 499.15 39.27C499.475 39.6357 499.65 40.1108 499.64 40.6C499.659 40.9661 499.585 41.3309 499.426 41.6611C499.267 41.9913 499.028 42.2763 498.73 42.49C497.963 42.973 497.065 43.2037 496.16 43.15H492.06ZM493.59 38H495.59C497.03 38 497.75 37.58 497.75 36.74C497.75 35.9 497.083 35.4667 495.75 35.44H493.65L493.59 38ZM493.59 39.23V41.94H496.13C496.636 41.9752 497.14 41.8492 497.57 41.58C497.726 41.4655 497.851 41.3143 497.935 41.14C498.019 40.9656 498.058 40.7733 498.05 40.58C498.05 39.68 497.383 39.23 496.05 39.23H493.59Z" fill="#2E2E2E"/>
</g>
<defs>
<clipPath id="clip0">
<rect width="499.6" height="46.78" fill="white"/>
</clipPath>
</defs>
</svg>
