<svg width="52" height="53" viewBox="0 0 52 53" fill="none" xmlns="http://www.w3.org/2000/svg">
<circle cx="16.8243" cy="35.606" r="16.8243" fill="#2E2E2E"/>
<circle cx="16.8244" cy="35.6057" r="5.6081" fill="#FF0000"/>
<path d="M15.5225 34.264C14.7815 34.9829 14.7636 36.1664 15.4825 36.9074C16.2014 37.6484 17.3849 37.6663 18.1259 36.9474L15.5225 34.264ZM42.8691 12.1797C42.8847 11.1474 42.0605 10.2979 41.0282 10.2823L24.2059 10.0275C23.1736 10.0118 22.324 10.836 22.3084 11.8683C22.2928 12.9006 23.1169 13.7501 24.1492 13.7658L39.1025 13.9923L38.876 28.9455C38.8603 29.9778 39.6845 30.8273 40.7168 30.8429C41.7491 30.8586 42.5986 30.0344 42.6143 29.0021L42.8691 12.1797ZM18.1259 36.9474L42.3016 13.4931L39.6983 10.8097L15.5225 34.264L18.1259 36.9474Z" fill="#FF0000"/>
</svg>
