<svg width="40" height="39" viewBox="0 0 40 39" fill="none" xmlns="http://www.w3.org/2000/svg">
<ellipse cx="15.593" cy="23.5302" rx="15.5932" ry="15.4698" fill="#2E2E2E"/>
<ellipse cx="15.5925" cy="23.5302" rx="5.19775" ry="5.1566" fill="#FF0000"/>
<path d="M14.4099 22.32C13.7359 22.9687 13.7193 24.0364 14.3729 24.7048C15.0264 25.3732 16.1026 25.3891 16.7766 24.7404L14.4099 22.32ZM39.6997 1.98935C39.7142 1.05803 38.9649 0.291768 38.0262 0.277866L22.7288 0.0513103C21.7901 0.0374078 21.0174 0.781124 21.003 1.71245C20.9885 2.64377 21.7377 3.41003 22.6765 3.42393L36.2741 3.62531L36.0646 17.1158C36.0501 18.0471 36.7994 18.8134 37.7381 18.8273C38.6768 18.8412 39.4495 18.0975 39.464 17.1661L39.6997 1.98935ZM16.7766 24.7404L39.1834 3.17438L36.8167 0.753975L14.4099 22.32L16.7766 24.7404Z" fill="#FF0000"/>
</svg>
