<svg width="500" height="47" viewBox="0 0 218 41" fill="none" xmlns="http://www.w3.org/2000/svg">
<g clip-path="url(#clip0)">
<path d="M14.68 38.32C22.7875 38.32 29.36 31.7475 29.36 23.64C29.36 15.5324 22.7875 8.95996 14.68 8.95996C6.57246 8.95996 0 15.5324 0 23.64C0 31.7475 6.57246 38.32 14.68 38.32Z" fill="#2E2E2E"/>
<path d="M36.2699 0.330012H21.5899C21.3524 0.311911 21.1136 0.343078 20.8887 0.42156C20.6637 0.500043 20.4574 0.624149 20.2826 0.786099C20.1078 0.948049 19.9684 1.14435 19.8731 1.3627C19.7777 1.58106 19.7285 1.81675 19.7285 2.05501C19.7285 2.29327 19.7777 2.52897 19.8731 2.74732C19.9684 2.96567 20.1078 3.16198 20.2826 3.32393C20.4574 3.48588 20.6637 3.60998 20.8887 3.68846C21.1136 3.76695 21.3524 3.79811 21.5899 3.78001H32.1299L16.9299 19C15.8236 18.4655 14.5638 18.34 13.3738 18.6458C12.1837 18.9515 11.1404 19.6688 10.4288 20.6704C9.71715 21.672 9.38316 22.8932 9.48604 24.1176C9.58892 25.3419 10.122 26.4903 10.9908 27.3591C11.8596 28.2279 13.008 28.761 14.2324 28.8639C15.4567 28.9668 16.678 28.6328 17.6796 27.9212C18.6812 27.2095 19.3984 26.1662 19.7042 24.9762C20.01 23.7862 19.8845 22.5263 19.3499 21.42L34.5499 6.20001V16.74C34.5831 17.1748 34.7792 17.5811 35.099 17.8775C35.4189 18.1739 35.8389 18.3386 36.2749 18.3386C36.711 18.3386 37.131 18.1739 37.4509 17.8775C37.7707 17.5811 37.9668 17.1748 37.9999 16.74V2.05001C37.9973 1.59292 37.8139 1.15546 37.4897 0.833177C37.1656 0.510899 36.727 0.330005 36.2699 0.330012Z" fill="#FF0000"/>
<path d="M54.3998 2H50.6998V12.09H48.2098V2H44.5498V0H54.3998V2Z" fill="black"/>
<path d="M62.9997 7.67996C63.0623 8.85869 62.7355 10.0253 62.0697 11C61.7819 11.4013 61.3995 11.7253 60.9564 11.9434C60.5133 12.1615 60.0232 12.2668 59.5297 12.25C59.1155 12.2643 58.7034 12.1865 58.3229 12.0222C57.9425 11.8579 57.6032 11.6112 57.3297 11.3V15.54H54.9297V3.10996H57.1597L57.2397 3.98996C57.5179 3.6599 57.8681 3.3981 58.2634 3.22473C58.6586 3.05135 59.0885 2.97104 59.5197 2.98996C60.0181 2.9642 60.5151 3.06319 60.9656 3.27796C61.4161 3.49274 61.8059 3.81652 62.0997 4.21996C62.7485 5.2087 63.0639 6.37911 62.9997 7.55996V7.67996ZM60.5997 7.49996C60.6403 6.82462 60.4877 6.15168 60.1597 5.55996C60.0239 5.34278 59.833 5.16544 59.6064 5.046C59.3798 4.92655 59.1256 4.86927 58.8697 4.87996C58.5537 4.85136 58.2364 4.91918 57.9597 5.07449C57.683 5.2298 57.4599 5.4653 57.3197 5.74996V9.42996C57.4614 9.71906 57.6871 9.95866 57.9672 10.1174C58.2473 10.2762 58.5688 10.3468 58.8897 10.32C60.043 10.32 60.6197 9.37996 60.6197 7.49996H60.5997Z" fill="black"/>
<path d="M69.7096 12.09C69.5863 11.8348 69.5053 11.5612 69.4696 11.28C69.1883 11.6036 68.8389 11.8611 68.4465 12.034C68.0541 12.2069 67.6283 12.2909 67.1996 12.28C66.3928 12.3045 65.6066 12.0222 64.9996 11.49C64.7201 11.2534 64.4969 10.9573 64.3464 10.6234C64.1959 10.2895 64.1218 9.92618 64.1296 9.56001C64.1101 9.13453 64.1978 8.71097 64.3848 8.32828C64.5718 7.94559 64.852 7.61606 65.1996 7.37001C66.1158 6.80382 67.1846 6.53486 68.2596 6.60001H69.3596V6.09001C69.3788 5.72877 69.2649 5.37303 69.0396 5.09001C68.9101 4.95898 68.7535 4.85794 68.5807 4.79402C68.4079 4.73009 68.2232 4.70483 68.0396 4.72001C67.6817 4.68758 67.3247 4.79111 67.0396 5.01001C66.9264 5.10917 66.837 5.23261 66.7782 5.37113C66.7193 5.50965 66.6925 5.65967 66.6996 5.81001H64.2996C64.2996 5.29072 64.4681 4.78544 64.7796 4.37001C65.1346 3.92024 65.6045 3.57473 66.1396 3.37001C66.7732 3.10753 67.454 2.97818 68.1396 2.99001C69.0913 2.93652 70.0298 3.23158 70.7796 3.82001C71.1135 4.11036 71.3769 4.47278 71.5502 4.87988C71.7234 5.28699 71.8019 5.72814 71.7796 6.17001V10C71.7346 10.6851 71.8546 11.371 72.1296 12V12.14L69.7096 12.09ZM67.7096 10.42C68.0579 10.4254 68.4018 10.3429 68.7096 10.18C68.9893 10.0383 69.2194 9.81518 69.3696 9.54001V8.00001H68.4696C67.2696 8.00001 66.6296 8.41667 66.5496 9.25001V9.39001C66.5487 9.52881 66.5767 9.66628 66.6318 9.79369C66.6868 9.92109 66.7679 10.0356 66.8696 10.13C67.1063 10.3304 67.4099 10.4339 67.7196 10.42H67.7096Z" fill="black"/>
<path d="M77.7599 12.26C77.166 12.2777 76.5746 12.1753 76.0213 11.9587C75.4679 11.7422 74.9641 11.4161 74.5399 11C74.1263 10.5811 73.803 10.082 73.5897 9.53336C73.3764 8.98472 73.2778 8.39822 73.2999 7.81V7.58C73.2843 6.74402 73.4622 5.91576 73.8199 5.16C74.1415 4.47984 74.6562 3.90944 75.2999 3.52C75.9622 3.12779 76.7203 2.92701 77.4899 2.94C78.0284 2.91225 78.5665 3.00158 79.0672 3.20184C79.5678 3.4021 80.0191 3.70853 80.3899 4.1C81.1481 5.02626 81.5269 6.20551 81.4499 7.4V8.4H75.7299C75.7841 8.93947 76.0329 9.44073 76.4299 9.81C76.8371 10.1698 77.3669 10.3595 77.9099 10.34C78.3253 10.3598 78.7394 10.2792 79.1171 10.1052C79.4948 9.93112 79.8251 9.66866 80.0799 9.34L81.2599 10.66C80.8875 11.1792 80.3836 11.5899 79.7999 11.85C79.1582 12.1345 78.4617 12.2745 77.7599 12.26ZM77.4899 4.88C77.2734 4.87146 77.0575 4.90995 76.8573 4.99281C76.657 5.07568 76.4771 5.20095 76.3299 5.36C76.0038 5.7512 75.8049 6.23268 75.7599 6.74H79.0999V6.55C79.1177 6.09728 78.9642 5.65449 78.6699 5.31C78.5138 5.15687 78.3271 5.0385 78.122 4.96267C77.9169 4.88683 77.6981 4.85525 77.4799 4.87L77.4899 4.88Z" fill="black"/>
<path d="M86.33 8.77997H85.33V12.09H83V3.08997H85.4V6.48997H86.26L88.26 3.10997H91.26L88.28 7.37997L91.49 12.09H88.29L86.33 8.77997Z" fill="black"/>
<path d="M99.86 4.99999H97V12.05H94.56V4.99999H91.73V3.10999H99.85L99.86 4.99999Z" fill="black"/>
<path d="M100.44 7.52002C100.438 6.69059 100.63 5.87214 101 5.13002C101.322 4.45556 101.837 3.8918 102.48 3.51002C103.164 3.11832 103.942 2.9212 104.73 2.94002C105.279 2.91398 105.828 2.99886 106.343 3.18957C106.858 3.38028 107.33 3.67293 107.73 4.05002C108.52 4.85254 108.977 5.92427 109.01 7.05002V7.66002C109.056 8.89016 108.618 10.0894 107.79 11C106.957 11.8017 105.846 12.2496 104.69 12.2496C103.534 12.2496 102.423 11.8017 101.59 11C100.778 10.0632 100.362 8.84768 100.43 7.61002L100.44 7.52002ZM102.84 7.69002C102.787 8.39047 102.955 9.08992 103.32 9.69002C103.482 9.89961 103.689 10.0693 103.927 10.1861C104.164 10.3029 104.425 10.3636 104.69 10.3636C104.955 10.3636 105.216 10.3029 105.453 10.1861C105.691 10.0693 105.898 9.89961 106.06 9.69002C106.437 9.04315 106.608 8.29659 106.55 7.55002C106.591 6.86506 106.42 6.184 106.06 5.60002C105.907 5.37732 105.701 5.19713 105.459 5.07641C105.218 4.9557 104.95 4.89843 104.68 4.91002C104.413 4.89998 104.148 4.95807 103.911 5.0788C103.673 5.19953 103.469 5.37891 103.32 5.60002C102.959 6.2349 102.793 6.96143 102.84 7.69002Z" fill="black"/>
<path d="M118.52 7.67996C118.581 8.8631 118.251 10.0334 117.58 11.01C117.288 11.4171 116.9 11.7448 116.449 11.9631C115.998 12.1814 115.5 12.2835 115 12.26C114.586 12.2743 114.174 12.1965 113.793 12.0322C113.413 11.8679 113.073 11.6212 112.8 11.31V15.55H110.4V3.10996H112.63L112.71 3.98996C112.988 3.6599 113.338 3.3981 113.734 3.22473C114.129 3.05135 114.559 2.97104 114.99 2.98996C115.488 2.9642 115.985 3.06319 116.436 3.27796C116.886 3.49274 117.276 3.81652 117.57 4.21996C118.236 5.22025 118.559 6.41008 118.49 7.60996L118.52 7.67996ZM116.12 7.49996C116.161 6.82462 116.008 6.15168 115.68 5.55996C115.544 5.34278 115.353 5.16544 115.127 5.046C114.9 4.92655 114.646 4.86927 114.39 4.87996C114.074 4.85136 113.757 4.91918 113.48 5.07449C113.203 5.2298 112.98 5.4653 112.84 5.74996V9.42996C112.982 9.71906 113.207 9.95866 113.487 10.1174C113.768 10.2762 114.089 10.3468 114.41 10.32C115.55 10.32 116.12 9.37996 116.12 7.49996Z" fill="black"/>
<path d="M125.42 3.10997H127.82V12.11H125.42V6.53997L122.42 12.09H120V3.08997H122.41V8.64997L125.42 3.10997Z" fill="black"/>
<path d="M137.14 3.10999V12.11H134.75V8.99999H133.23L131.5 12.11H129.07L131.07 8.59999C130.574 8.38449 130.145 8.03897 129.83 7.59999C129.538 7.17324 129.384 6.66701 129.39 6.14999C129.38 5.74024 129.465 5.33373 129.638 4.9624C129.812 4.59108 130.069 4.26506 130.39 4.00999C131.164 3.41932 132.117 3.11221 133.09 3.13999L137.14 3.10999ZM133.14 7.30999H134.78V4.99999H133.22C132.857 4.99359 132.503 5.11382 132.22 5.33999C132.094 5.43414 131.993 5.55653 131.923 5.69724C131.854 5.83796 131.818 5.99305 131.82 6.14999C131.819 6.30188 131.853 6.45196 131.919 6.58885C131.984 6.72573 132.081 6.84581 132.2 6.93999C132.453 7.1613 132.774 7.29152 133.11 7.30999H133.14Z" fill="black"/>
<path d="M146 7.82999V12.09H143.51V-1.28153e-05H148.23C149.057 -0.0174219 149.878 0.153554 150.63 0.499987C151.289 0.805574 151.842 1.29976 152.22 1.91999C152.604 2.54602 152.808 3.26564 152.81 3.99999C152.833 4.52884 152.736 5.05611 152.524 5.54143C152.313 6.02675 151.993 6.45726 151.59 6.79999C150.622 7.52454 149.426 7.87921 148.22 7.79999L146 7.82999ZM146 5.82999H148.23C148.773 5.86969 149.311 5.70569 149.74 5.36999C149.931 5.19908 150.081 4.98691 150.178 4.74955C150.275 4.51219 150.316 4.25587 150.3 3.99999C150.312 3.73757 150.272 3.47534 150.183 3.22826C150.094 2.98118 149.957 2.7541 149.78 2.55999C149.588 2.3746 149.36 2.22954 149.111 2.13336C148.862 2.03718 148.597 1.99183 148.33 1.99999H146V5.82999Z" fill="black"/>
<path d="M159.48 12.09C159.357 11.8346 159.276 11.5611 159.24 11.28C158.959 11.6042 158.61 11.862 158.217 12.035C157.824 12.2079 157.398 12.2916 156.97 12.28C156.17 12.3103 155.389 12.039 154.78 11.52C154.5 11.2834 154.277 10.9873 154.126 10.6534C153.976 10.3195 153.902 9.95618 153.91 9.59001C153.887 9.15776 153.975 8.72692 154.166 8.33838C154.357 7.94985 154.644 7.61651 155 7.37001C155.899 6.81575 156.945 6.54726 158 6.60001H159.1V6.09001C159.119 5.72877 159.005 5.37303 158.78 5.09001C158.65 4.95898 158.494 4.85794 158.321 4.79402C158.148 4.73009 157.963 4.70483 157.78 4.72001C157.422 4.68758 157.065 4.79111 156.78 5.01001C156.666 5.10917 156.577 5.23261 156.518 5.37113C156.459 5.50965 156.433 5.65967 156.44 5.81001H154.04C154.04 5.29084 154.209 4.78578 154.52 4.37001C154.875 3.92024 155.345 3.57473 155.88 3.37001C156.513 3.10753 157.194 2.97818 157.88 2.99001C158.831 2.93652 159.77 3.23158 160.52 3.82001C160.854 4.11036 161.117 4.47278 161.29 4.87988C161.463 5.28699 161.542 5.72814 161.52 6.17001V10C161.488 10.6658 161.611 11.33 161.88 11.94V12.08L159.48 12.09ZM157.48 10.42C157.828 10.4254 158.172 10.3429 158.48 10.18C158.759 10.0383 158.989 9.81518 159.14 9.54001V8.00001H158.24C157.04 8.00001 156.4 8.41667 156.32 9.25001V9.39001C156.319 9.52881 156.347 9.66628 156.402 9.79369C156.457 9.92109 156.538 10.0356 156.64 10.13C156.878 10.3337 157.186 10.4375 157.5 10.42H157.48Z" fill="black"/>
<path d="M168.11 5.74998C168.12 5.60951 168.097 5.46865 168.043 5.33851C167.989 5.20837 167.906 5.09248 167.8 4.99998C167.546 4.81245 167.235 4.72038 166.92 4.73998C166.595 4.73741 166.276 4.82761 166 4.99998C165.883 5.07218 165.787 5.17402 165.722 5.29519C165.657 5.41637 165.625 5.55256 165.63 5.68998H163.23C163.219 5.30006 163.305 4.91352 163.479 4.56463C163.654 4.21575 163.912 3.91531 164.23 3.68998C164.986 3.1572 165.896 2.88993 166.82 2.92998C167.778 2.8764 168.729 3.11342 169.55 3.60998C169.87 3.81913 170.131 4.10786 170.306 4.44792C170.482 4.78798 170.566 5.16772 170.55 5.54998C170.551 5.94583 170.425 6.33158 170.19 6.64998C169.932 6.99927 169.587 7.27506 169.19 7.44998C169.646 7.56844 170.047 7.83948 170.327 8.21795C170.608 8.59642 170.75 9.05948 170.73 9.52998C170.742 9.92662 170.65 10.3195 170.464 10.6701C170.279 11.0207 170.005 11.317 169.67 11.53C168.827 12.0559 167.843 12.3107 166.85 12.26C165.895 12.3007 164.952 12.0344 164.16 11.5C163.805 11.2843 163.511 10.9804 163.308 10.6176C163.104 10.2549 162.998 9.84577 163 9.42998H165.4C165.399 9.5782 165.436 9.72422 165.508 9.85388C165.58 9.98354 165.684 10.0924 165.81 10.17C166.126 10.3694 166.496 10.4672 166.87 10.45C167.228 10.4721 167.583 10.3657 167.87 10.15C167.984 10.0549 168.076 9.93553 168.138 9.80061C168.2 9.66568 168.232 9.51857 168.23 9.36998C168.243 9.21309 168.22 9.05523 168.161 8.90926C168.102 8.76329 168.009 8.63334 167.89 8.52998C167.591 8.34516 167.241 8.25781 166.89 8.27998H165.59V6.71998H167C167.74 6.69998 168.11 6.37665 168.11 5.74998Z" fill="black"/>
<path d="M172.29 12.09V3.08999H176C176.983 3.0304 177.962 3.25612 178.82 3.73999C179.136 3.93409 179.395 4.20844 179.571 4.53515C179.747 4.86186 179.832 5.22927 179.82 5.59999C179.823 6.01059 179.677 6.40843 179.41 6.71999C179.088 7.0798 178.673 7.34295 178.21 7.47999C178.777 7.56399 179.306 7.81461 179.73 8.19999C179.909 8.36928 180.05 8.57424 180.145 8.80162C180.24 9.029 180.286 9.27374 180.28 9.52C180.3 9.89216 180.224 10.2632 180.059 10.5975C179.894 10.9319 179.647 11.2185 179.34 11.43C178.514 11.921 177.559 12.151 176.6 12.09H172.29ZM174.69 6.74999H176.18C177.02 6.74999 177.44 6.47999 177.44 5.93999C177.452 5.80487 177.427 5.66904 177.367 5.54735C177.307 5.42566 177.215 5.32279 177.1 5.24999C176.763 5.06741 176.383 4.98093 176 4.99999H174.65L174.69 6.74999ZM174.69 8.35999V10.15H176.63C177.477 10.15 177.9 9.85666 177.9 9.27C177.9 8.68333 177.497 8.37999 176.69 8.35999H174.69Z" fill="black"/>
<path d="M187.17 3.10997H189.57V12.11H187.17V6.53997L184.17 12.09H181.76V3.08997H184.17V8.64997L187.17 3.10997Z" fill="black"/>
<path d="M198.86 4.99999H196V12.05H193.59V4.99999H190.76V3.10999H198.88L198.86 4.99999Z" fill="black"/>
<path d="M205.48 3.10997H207.88V12.11H205.48V6.53997L202.48 12.09H200.07V3.08997H202.48V8.64997L205.48 3.10997Z" fill="black"/>
<path d="M217.21 3.10999V12.11H214.82V8.99999H213.3L211.57 12.11H209.14L211.14 8.59999C210.644 8.38449 210.215 8.03897 209.9 7.59999C209.608 7.17324 209.454 6.66701 209.46 6.14999C209.449 5.74024 209.535 5.33373 209.708 4.9624C209.882 4.59108 210.139 4.26506 210.46 4.00999C211.233 3.41932 212.187 3.11221 213.16 3.13999L217.21 3.10999ZM213.21 7.30999H214.85V4.99999H213.29C212.927 4.99359 212.573 5.11382 212.29 5.33999C212.164 5.43414 212.062 5.55653 211.993 5.69724C211.923 5.83796 211.888 5.99305 211.89 6.14999C211.889 6.30188 211.923 6.45196 211.988 6.58885C212.054 6.72573 212.15 6.84581 212.27 6.93999C212.521 7.15925 212.837 7.28934 213.17 7.30999H213.21Z" fill="black"/>
<path d="M49.7097 21.37H46.2197V24.23H50.2797V25.1H45.1597V17H50.2297V17.87H46.2297V20.47H49.7197L49.7097 21.37Z" fill="black"/>
<path d="M51.3897 24.26L51.7397 23.82C52.193 23.1282 52.4297 22.317 52.4197 21.49L52.5097 19.1H56.3697V24.25H57.1397V26.85H56.1397V25.09H51.9497V26.85H50.9497V24.25L51.3897 24.26ZM52.5997 24.26H55.3497V20H53.5097L53.4497 21.43C53.458 22.4375 53.1617 23.4239 52.5997 24.26Z" fill="black"/>
<path d="M62.1599 19.1H63.1599V25.1H62.1599V20.72L59.3999 25.09H58.3999V19.09H59.3999V23.46L62.1599 19.1Z" fill="black"/>
<path d="M69.7197 25.09H68.7197V22.53H65.9497V25.09H64.9497V19.09H65.9497V21.69H68.6997V19.1H69.6997L69.7197 25.09Z" fill="black"/>
<path d="M71.0996 22C71.0928 21.4534 71.2125 20.9126 71.4496 20.42C71.6699 19.9672 72.0174 19.5884 72.4496 19.33C72.8649 19.0992 73.3348 18.9852 73.8096 19C74.1852 18.9842 74.5596 19.0523 74.9056 19.1994C75.2515 19.3464 75.5604 19.5687 75.8096 19.85C76.3333 20.4793 76.601 21.2825 76.5596 22.1V22.17C76.5698 22.7116 76.457 23.2484 76.2297 23.74C76.0097 24.1905 75.6619 24.5662 75.2297 24.82C74.7998 25.0834 74.3037 25.2187 73.7997 25.21C73.424 25.2265 73.0494 25.1588 72.7033 25.0117C72.3572 24.8646 72.0485 24.642 71.7997 24.36C71.2731 23.7358 71.0016 22.9358 71.0396 22.12L71.0996 22ZM72.0996 22.12C72.0704 22.6897 72.2323 23.2528 72.5596 23.72C72.7064 23.909 72.8944 24.062 73.1093 24.1672C73.3243 24.2724 73.5604 24.3271 73.7997 24.3271C74.0389 24.3271 74.275 24.2724 74.49 24.1672C74.7049 24.062 74.8929 23.909 75.0396 23.72C75.3859 23.2154 75.558 22.6114 75.5296 22C75.5559 21.4292 75.3905 20.866 75.0596 20.4C74.9176 20.2058 74.7306 20.0488 74.5146 19.9426C74.2987 19.8364 74.0602 19.784 73.8196 19.79C73.583 19.7844 73.3485 19.8361 73.1361 19.9405C72.9237 20.045 72.7397 20.1992 72.5996 20.39C72.2476 20.91 72.0819 21.5339 72.1296 22.16L72.0996 22.12Z" fill="black"/>
<path d="M80.3199 25.2C79.9488 25.2167 79.5785 25.1539 79.2336 25.016C78.8887 24.878 78.5772 24.668 78.3199 24.4C77.796 23.8138 77.5231 23.0454 77.5599 22.26V22.07C77.5505 21.521 77.6668 20.9772 77.8999 20.48C78.1215 20.0255 78.4685 19.6438 78.8999 19.38C79.2939 19.118 79.7568 18.9788 80.23 18.98C80.572 18.9606 80.9139 19.02 81.2294 19.1535C81.545 19.287 81.8257 19.491 82.05 19.75C82.5203 20.3832 82.7507 21.1629 82.6999 21.95V22.38H78.5999C78.5913 22.9045 78.7765 23.4136 79.12 23.81C79.2772 23.988 79.4715 24.1294 79.6891 24.2244C79.9068 24.3194 80.1425 24.3657 80.3799 24.36C80.7008 24.371 81.0187 24.295 81.3 24.14C81.5559 23.9877 81.78 23.7874 81.9599 23.55L82.5899 24.04C82.3489 24.4177 82.0114 24.7243 81.6124 24.9282C81.2134 25.1321 80.7673 25.226 80.3199 25.2ZM80.1899 19.83C80.0013 19.8321 79.815 19.8732 79.643 19.9506C79.4709 20.028 79.3167 20.1402 79.19 20.28C78.8856 20.6371 78.7034 21.0821 78.6699 21.55H81.6699V21.47C81.6664 21.0316 81.5188 20.6064 81.2499 20.26C81.1182 20.1117 80.9541 19.9957 80.7702 19.9211C80.5864 19.8465 80.3878 19.8154 80.1899 19.83Z" fill="black"/>
<path d="M86.3799 22C86.373 21.4534 86.4928 20.9126 86.7299 20.42C86.9497 19.9669 87.2973 19.588 87.7299 19.33C88.1451 19.0992 88.6151 18.9852 89.0899 19C89.4655 18.9842 89.8399 19.0523 90.1858 19.1994C90.5318 19.3464 90.8406 19.5687 91.0899 19.85C91.6171 20.4778 91.8885 21.2812 91.8499 22.1V22.17C91.858 22.7125 91.7417 23.2496 91.5099 23.74C91.2905 24.1908 90.9425 24.5666 90.5099 24.82C90.0798 25.0829 89.5839 25.2182 89.0799 25.21C88.7043 25.2265 88.3297 25.1588 87.9836 25.0117C87.6375 24.8646 87.3288 24.642 87.0799 24.36C86.5533 23.7358 86.2819 22.9358 86.3199 22.12L86.3799 22ZM87.3799 22.12C87.3507 22.6897 87.5126 23.2528 87.8399 23.72C87.9867 23.909 88.1747 24.062 88.3896 24.1672C88.6045 24.2724 88.8406 24.3271 89.0799 24.3271C89.3192 24.3271 89.5553 24.2724 89.7702 24.1672C89.9851 24.062 90.1732 23.909 90.3199 23.72C90.6669 23.2157 90.839 22.6115 90.8099 22C90.8362 21.4292 90.6708 20.866 90.3399 20.4C90.1979 20.2058 90.0109 20.0488 89.7949 19.9426C89.579 19.8364 89.3405 19.784 89.0999 19.79C88.8633 19.7844 88.6288 19.8361 88.4164 19.9405C88.204 20.045 88.0199 20.1992 87.8799 20.39C87.5278 20.91 87.3622 21.5339 87.4099 22.16L87.3799 22.12Z" fill="black"/>
<path d="M95 22.54H94.25V25.09H93.25V19.09H94.25V21.63H94.92L96.92 19.09H98.16L95.79 22L98.36 25.11H97.06L95 22.54Z" fill="black"/>
<path d="M104.13 25.09H103.13V22.53H100.38V25.09H99.3799V19.09H100.38V21.69H103.13V19.1H104.13V25.09Z" fill="black"/>
<path d="M105.5 22C105.493 21.4534 105.613 20.9126 105.85 20.42C106.07 19.9672 106.418 19.5884 106.85 19.33C107.274 19.0723 107.763 18.9405 108.26 18.95C108.635 18.9342 109.01 19.0023 109.356 19.1493C109.702 19.2963 110.011 19.5186 110.26 19.8C110.783 20.4292 111.051 21.2324 111.01 22.05V22.12C111.021 22.6616 110.908 23.1986 110.68 23.69C110.46 24.1408 110.112 24.5166 109.68 24.77C109.25 25.0329 108.754 25.1681 108.25 25.16C107.874 25.1765 107.5 25.1087 107.154 24.9617C106.807 24.8146 106.499 24.5919 106.25 24.31C105.723 23.6858 105.452 22.8858 105.49 22.07L105.5 22ZM106.5 22.12C106.471 22.6897 106.633 23.2528 106.96 23.72C107.107 23.909 107.295 24.0619 107.51 24.1671C107.724 24.2723 107.961 24.327 108.2 24.327C108.439 24.327 108.675 24.2723 108.89 24.1671C109.105 24.0619 109.293 23.909 109.44 23.72C109.774 23.2148 109.936 22.6147 109.9 22.01C109.925 21.4392 109.76 20.8763 109.43 20.41C109.288 20.2157 109.101 20.0588 108.885 19.9525C108.669 19.8463 108.43 19.794 108.19 19.8C107.953 19.7944 107.719 19.846 107.506 19.9505C107.294 20.0549 107.11 20.2091 106.97 20.4C106.634 20.9222 106.483 21.5418 106.54 22.16L106.5 22.12Z" fill="black"/>
<path d="M117.45 24.37C117.812 24.3863 118.168 24.2689 118.45 24.04C118.578 23.9405 118.685 23.8153 118.762 23.6724C118.84 23.5295 118.886 23.372 118.9 23.21H119.9C119.882 23.5702 119.761 23.9177 119.55 24.21C119.325 24.5248 119.026 24.779 118.68 24.95C118.324 25.1337 117.93 25.2297 117.53 25.23C117.164 25.2463 116.8 25.1812 116.462 25.0393C116.125 24.8975 115.824 24.6826 115.58 24.41C115.071 23.7821 114.814 22.987 114.86 22.18V22C114.848 21.4626 114.958 20.9295 115.18 20.44C115.375 20.0039 115.695 19.6352 116.1 19.38C116.527 19.1204 117.02 18.9886 117.52 19C118.133 18.9793 118.73 19.194 119.19 19.6C119.41 19.7986 119.587 20.0406 119.709 20.3108C119.831 20.581 119.896 20.8735 119.9 21.17H118.9C118.897 20.9825 118.856 20.7974 118.78 20.6257C118.705 20.454 118.596 20.2991 118.46 20.17C118.326 20.0446 118.169 19.9473 117.997 19.8837C117.825 19.8202 117.643 19.7917 117.46 19.8C117.228 19.7881 116.996 19.8328 116.785 19.9304C116.575 20.0279 116.391 20.1754 116.25 20.36C115.932 20.8418 115.781 21.4143 115.82 21.99V22.18C115.785 22.7428 115.936 23.3012 116.25 23.77C116.386 23.9599 116.566 24.1138 116.776 24.2183C116.985 24.3229 117.216 24.3749 117.45 24.37Z" fill="black"/>
<path d="M122.94 23.59L124.33 19.1H125.43L123 26C122.627 26.9934 122.033 27.49 121.22 27.49H121.03L120.65 27.42V26.59H120.93C121.215 26.6069 121.499 26.5334 121.74 26.38C121.975 26.1782 122.142 25.9096 122.22 25.61L122.45 25L120.31 19.08H121.43L122.94 23.59Z" fill="black"/>
<path d="M129 19.44C129.339 19.426 129.677 19.4868 129.99 19.6182C130.303 19.7495 130.583 19.9482 130.81 20.2C131.283 20.756 131.526 21.4711 131.49 22.2V22.29C131.497 22.812 131.384 23.3287 131.16 23.8C130.949 24.2167 130.623 24.5639 130.22 24.8C129.793 25.0513 129.305 25.1793 128.81 25.17C128.447 25.1833 128.086 25.1177 127.751 24.9779C127.416 24.8381 127.116 24.6273 126.87 24.36C126.356 23.7614 126.091 22.9882 126.13 22.2V21.7C126.078 20.6542 126.32 19.6147 126.83 18.7C127.055 18.3364 127.357 18.0263 127.715 17.7914C128.072 17.5565 128.477 17.4025 128.9 17.34C129.252 17.2926 129.592 17.1771 129.9 17C129.987 16.9382 130.058 16.8555 130.105 16.7594C130.152 16.6633 130.175 16.557 130.17 16.45H131C131.025 16.835 130.915 17.2166 130.69 17.53C130.428 17.8206 130.076 18.0143 129.69 18.08L128.93 18.25C128.409 18.3469 127.931 18.6018 127.56 18.98C127.237 19.3677 127.033 19.8396 126.97 20.34C127.218 20.0455 127.529 19.8114 127.881 19.6554C128.233 19.4994 128.615 19.4258 129 19.44ZM128.8 20.28C128.575 20.27 128.35 20.3106 128.142 20.3988C127.934 20.4871 127.749 20.6207 127.6 20.79C127.286 21.1868 127.13 21.6852 127.16 22.19V22.28C127.13 22.8265 127.289 23.3666 127.61 23.81C127.757 23.9864 127.942 24.1284 128.15 24.2257C128.358 24.3231 128.585 24.3736 128.815 24.3736C129.045 24.3736 129.272 24.3231 129.48 24.2257C129.688 24.1284 129.873 23.9864 130.02 23.81C130.346 23.3243 130.501 22.7436 130.46 22.16C130.48 21.6654 130.316 21.1808 130 20.8C129.848 20.6292 129.659 20.4947 129.448 20.4064C129.237 20.3181 129.009 20.2784 128.78 20.29L128.8 20.28Z" fill="black"/>
<path d="M135 24.37C135.362 24.3863 135.718 24.2689 136 24.04C136.129 23.9405 136.235 23.8153 136.312 23.6724C136.39 23.5295 136.437 23.372 136.45 23.21H137.45C137.433 23.5702 137.311 23.9177 137.1 24.21C136.876 24.5248 136.577 24.779 136.23 24.95C135.874 25.1337 135.48 25.2297 135.08 25.23C134.715 25.2463 134.35 25.1812 134.013 25.0393C133.676 24.8975 133.374 24.6826 133.13 24.41C132.621 23.7821 132.364 22.987 132.41 22.18V22C132.399 21.4627 132.509 20.9297 132.73 20.44C132.927 20.0045 133.246 19.6361 133.65 19.38C134.057 19.133 134.524 19.0017 135 19C135.613 18.9793 136.21 19.194 136.67 19.6C136.89 19.7986 137.067 20.0406 137.189 20.3108C137.311 20.581 137.376 20.8735 137.38 21.17H136.38C136.377 20.9825 136.336 20.7974 136.261 20.6257C136.185 20.454 136.076 20.2991 135.94 20.17C135.806 20.0446 135.649 19.9473 135.477 19.8837C135.306 19.8202 135.123 19.7917 134.94 19.8C134.708 19.7881 134.477 19.8328 134.266 19.9304C134.055 20.0279 133.871 20.1754 133.73 20.36C133.412 20.8418 133.261 21.4143 133.3 21.99V22.18C133.266 22.7428 133.417 23.3012 133.73 23.77C133.873 23.9701 134.065 24.1303 134.287 24.2354C134.509 24.3404 134.755 24.3868 135 24.37Z" fill="black"/>
<path d="M142.43 19.1H143.43V25.1H142.43V20.72L139.67 25.09H138.67V19.09H139.67V23.46L142.43 19.1Z" fill="black"/>
<path d="M145 24.26L145.35 23.82C145.804 23.1285 146.041 22.3171 146.03 21.49L146.12 19.1H150V24.25H150.77V26.85H149.77V25.09H145.6V26.85H144.6V24.25L145 24.26ZM146.21 24.26H149V20H147.16L147.1 21.43C147.111 22.4364 146.819 23.4227 146.26 24.26H146.21Z" fill="black"/>
<path d="M155.81 19.1H156.81V25.1H155.81V20.72L153.05 25.09H152.05V19.09H153.05V23.46L155.81 19.1Z" fill="black"/>
<path d="M163.54 22.16C163.578 22.9413 163.361 23.7138 162.92 24.36C162.729 24.6283 162.475 24.8453 162.18 24.9919C161.885 25.1384 161.559 25.2099 161.23 25.2C160.91 25.217 160.591 25.1641 160.294 25.0449C159.996 24.9258 159.729 24.7432 159.51 24.51V27.39H158.51V19.1H159.45V19.76C159.659 19.5044 159.926 19.3015 160.228 19.1677C160.53 19.034 160.86 18.9731 161.19 18.99C161.52 18.9734 161.848 19.0387 162.147 19.18C162.445 19.3213 162.704 19.5343 162.9 19.8C163.354 20.4628 163.576 21.2577 163.53 22.06L163.54 22.16ZM162.54 22.04C162.572 21.4743 162.421 20.9134 162.11 20.44C161.977 20.2516 161.8 20.0991 161.594 19.9961C161.388 19.8931 161.16 19.8429 160.93 19.85C160.644 19.84 160.361 19.9119 160.115 20.0571C159.869 20.2024 159.669 20.4151 159.54 20.67V23.53C159.672 23.7873 159.875 24.0014 160.125 24.1468C160.374 24.2921 160.661 24.3627 160.95 24.35C161.177 24.3566 161.403 24.3071 161.607 24.206C161.811 24.1048 161.987 23.9551 162.12 23.77C162.44 23.2383 162.58 22.6176 162.52 22L162.54 22.04Z" fill="black"/>
<path d="M164.57 22C164.563 21.4534 164.683 20.9126 164.92 20.42C165.14 19.9669 165.487 19.5879 165.92 19.33C166.344 19.0723 166.833 18.9405 167.33 18.95C167.706 18.9335 168.08 19.0013 168.426 19.1483C168.772 19.2954 169.081 19.5181 169.33 19.8C169.857 20.4278 170.128 21.2311 170.09 22.05V22.12C170.101 22.6616 169.988 23.1986 169.76 23.69C169.54 24.1408 169.193 24.5166 168.76 24.77C168.33 25.0334 167.834 25.1687 167.33 25.16C166.954 25.1765 166.58 25.1087 166.234 24.9617C165.888 24.8146 165.579 24.5919 165.33 24.31C164.803 23.6858 164.532 22.8858 164.57 22.07V22ZM165.57 22.12C165.541 22.6897 165.703 23.2528 166.03 23.72C166.177 23.909 166.365 24.0619 166.58 24.1671C166.795 24.2723 167.031 24.327 167.27 24.327C167.509 24.327 167.745 24.2723 167.96 24.1671C168.175 24.0619 168.363 23.909 168.51 23.72C168.856 23.2153 169.028 22.6114 169 22C169.026 21.4292 168.861 20.8659 168.53 20.4C168.388 20.2057 168.201 20.0488 167.985 19.9426C167.769 19.8363 167.53 19.784 167.29 19.79C167.053 19.7844 166.819 19.836 166.606 19.9405C166.394 20.0449 166.21 20.1992 166.07 20.39C165.718 20.91 165.552 21.5339 165.6 22.16L165.57 22.12Z" fill="black"/>
<path d="M171.4 25.09V19.09H173.74C174.377 19.0533 175.012 19.199 175.57 19.51C175.776 19.6396 175.945 19.8219 176.057 20.0381C176.17 20.2543 176.222 20.4966 176.21 20.74C176.211 21.0107 176.124 21.2744 175.96 21.49C175.769 21.7294 175.512 21.9069 175.22 22C175.555 22.0711 175.86 22.246 176.09 22.5C176.309 22.744 176.427 23.0622 176.42 23.39C176.432 23.6343 176.382 23.8778 176.276 24.0979C176.169 24.3181 176.009 24.5079 175.81 24.65C175.3 24.9715 174.702 25.1254 174.1 25.09H171.4ZM172.4 21.64H173.72C174.68 21.64 175.16 21.36 175.16 20.8C175.16 20.24 174.707 19.95 173.8 19.93H172.4V21.64ZM172.4 22.46V24.27H174.09C174.441 24.3023 174.792 24.2179 175.09 24.03C175.194 23.9531 175.278 23.8518 175.334 23.735C175.389 23.6181 175.416 23.4894 175.41 23.36C175.41 22.76 174.97 22.46 174.09 22.46H172.4Z" fill="black"/>
<path d="M181.49 25.09C181.411 24.8883 181.364 24.6759 181.35 24.46C181.133 24.6968 180.868 24.8851 180.574 25.0127C180.279 25.1402 179.961 25.204 179.64 25.2C179.111 25.2211 178.593 25.0427 178.19 24.7C178.006 24.544 177.86 24.349 177.761 24.1294C177.663 23.9097 177.614 23.6708 177.62 23.43C177.608 23.1483 177.666 22.868 177.79 22.6147C177.914 22.3615 178.1 22.1433 178.33 21.98C178.925 21.6009 179.625 21.4189 180.33 21.46H181.33V21C181.338 20.8424 181.314 20.6847 181.259 20.5367C181.204 20.3888 181.119 20.2537 181.01 20.14C180.881 20.026 180.73 19.9389 180.567 19.884C180.404 19.829 180.231 19.8073 180.06 19.82C179.731 19.8091 179.407 19.9076 179.14 20.1C179.028 20.1732 178.936 20.2724 178.872 20.3892C178.807 20.5059 178.772 20.6367 178.77 20.77H177.77C177.775 20.4522 177.888 20.1457 178.09 19.9C178.316 19.6108 178.612 19.3837 178.95 19.24C179.328 19.0756 179.737 18.9937 180.15 19C180.735 18.9669 181.313 19.1521 181.77 19.52C181.968 19.7007 182.125 19.9219 182.23 20.1686C182.336 20.4153 182.387 20.6818 182.38 20.95V23.71C182.362 24.1563 182.433 24.6016 182.59 25.02V25.11L181.49 25.09ZM179.79 24.31C180.11 24.3091 180.424 24.2228 180.7 24.06C180.972 23.9134 181.192 23.6864 181.33 23.41V22.18H180.53C179.276 22.18 178.65 22.5467 178.65 23.28C178.651 23.4185 178.683 23.555 178.743 23.6796C178.804 23.8042 178.891 23.9136 179 24C179.218 24.1938 179.498 24.3037 179.79 24.31Z" fill="black"/>
<path d="M188.85 25.09H187.85V22.53H185.1V25.09H184.1V19.09H185.1V21.69H187.85V19.1H188.85V25.09Z" fill="black"/>
<path d="M194.37 19.1H195.37V25.1H194.37V20.72L191.61 25.09H190.61V19.09H191.61V23.46L194.37 19.1Z" fill="black"/>
<path d="M201.62 19.1V25.1H200.62V22.76H199L197.59 25.09H196.48L198 22.61C197.646 22.4905 197.338 22.2632 197.12 21.96C196.917 21.6661 196.809 21.3172 196.81 20.96C196.802 20.7077 196.853 20.4569 196.959 20.2277C197.064 19.9986 197.222 19.7973 197.42 19.64C197.891 19.2848 198.471 19.1045 199.06 19.13L201.62 19.1ZM197.87 20.94C197.864 21.0732 197.888 21.206 197.94 21.3288C197.992 21.4516 198.071 21.5613 198.17 21.65C198.391 21.835 198.672 21.9312 198.96 21.92H200.59V19.92H199.12C198.793 19.9025 198.471 20.0017 198.21 20.2C198.099 20.288 198.011 20.4008 197.951 20.5294C197.892 20.658 197.864 20.7986 197.87 20.94Z" fill="black"/>
<path d="M48.8699 32.14H49.8699V38.14H48.8699V33.76L46.1099 38.13H45.1099V32.13H46.1099V36.5L48.8699 32.14Z" fill="black"/>
<path d="M56.4397 38.13H55.4397V35.57H52.6597V38.13H51.6597V32.13H52.6597V34.73H55.4097V32.13H56.4097L56.4397 38.13Z" fill="black"/>
<path d="M62.9997 38.13H61.9997V35.57H59.1997V38.13H58.1997V32.13H59.1997V34.73H61.9497V32.13H62.9497L62.9997 38.13Z" fill="black"/>
<path d="M64.3499 35.08C64.343 34.5334 64.4628 33.9926 64.6999 33.5C64.9197 33.0469 65.2673 32.668 65.6999 32.41C66.1099 32.1495 66.5841 32.0075 67.0699 32C67.4455 31.9842 67.8198 32.0523 68.1658 32.1994C68.5118 32.3464 68.8206 32.5687 69.0699 32.85C69.5971 33.4778 69.8685 34.2812 69.8299 35.1V35.17C69.838 35.7125 69.7217 36.2496 69.4899 36.74C69.2705 37.1908 68.9225 37.5666 68.4899 37.82C68.0598 38.0829 67.5639 38.2182 67.0599 38.21C66.6842 38.2265 66.3096 38.1588 65.9636 38.0117C65.6175 37.8646 65.3087 37.642 65.0599 37.36C64.5333 36.7358 64.2619 35.9358 64.2999 35.12L64.3499 35.08ZM65.3499 35.2C65.3207 35.7697 65.4826 36.3328 65.8099 36.8C65.9567 36.989 66.1447 37.142 66.3596 37.2472C66.5745 37.3524 66.8106 37.4071 67.0499 37.4071C67.2892 37.4071 67.5253 37.3524 67.7402 37.2472C67.9551 37.142 68.1431 36.989 68.2899 36.8C68.6242 36.2948 68.7856 35.6948 68.7499 35.09C68.7762 34.5192 68.6108 33.956 68.2799 33.49C68.1378 33.2958 67.9508 33.1388 67.7349 33.0326C67.5189 32.9264 67.2805 32.874 67.0399 32.88C66.8033 32.8744 66.5688 32.9261 66.3564 33.0305C66.144 33.135 65.9599 33.2892 65.8199 33.48C65.4892 33.9899 65.3346 34.594 65.3799 35.2H65.3499Z" fill="black"/>
<path d="M71.1797 38.13V32.13H73.5197C74.1572 32.0933 74.792 32.239 75.3497 32.55C75.558 32.6783 75.7281 32.8601 75.8424 33.0764C75.9567 33.2927 76.011 33.5356 75.9997 33.78C76.0012 34.0507 75.9133 34.3143 75.7497 34.53C75.5511 34.7567 75.2903 34.9201 74.9997 35C75.335 35.0711 75.6395 35.246 75.8697 35.5C76.0888 35.744 76.2068 36.0622 76.1997 36.39C76.2117 36.6343 76.1621 36.8777 76.0555 37.0979C75.949 37.3181 75.7888 37.5079 75.5897 37.65C75.0795 37.9715 74.4816 38.1253 73.8797 38.09L71.1797 38.13ZM72.1797 34.68H73.4997C74.4597 34.68 74.9397 34.4 74.9397 33.84C74.9397 33.28 74.493 33 73.5997 33H72.1997L72.1797 34.68ZM72.1797 35.5V37.31H73.8997C74.2504 37.3422 74.6018 37.2579 74.8997 37.07C75.0038 36.9931 75.0875 36.8918 75.1433 36.775C75.1991 36.6581 75.2253 36.5294 75.2197 36.4C75.2197 35.8 74.7797 35.5 73.8997 35.5H72.1797Z" fill="black"/>
<path d="M81.2597 38.13C81.181 37.9284 81.1338 37.7159 81.1197 37.5C80.9024 37.7363 80.6379 37.9243 80.3433 38.0518C80.0488 38.1793 79.7307 38.2434 79.4097 38.24C78.8807 38.2611 78.3632 38.0827 77.9597 37.74C77.7763 37.584 77.6299 37.389 77.5313 37.1694C77.4327 36.9497 77.3843 36.7108 77.3897 36.47C77.3742 36.185 77.4313 35.9006 77.5554 35.6436C77.6796 35.3865 77.8668 35.1651 78.0997 35C78.6952 34.6209 79.3949 34.4389 80.0997 34.48H81.0997V34C81.1076 33.8424 81.0834 33.6849 81.0283 33.537C80.9733 33.3891 80.8887 33.2541 80.7797 33.14C80.6507 33.026 80.5002 32.9389 80.337 32.884C80.1739 32.829 80.0014 32.8073 79.8297 32.82C79.5005 32.8091 79.177 32.9076 78.9097 33.1C78.7982 33.1732 78.7062 33.2724 78.6417 33.3892C78.5772 33.5059 78.5422 33.6367 78.5397 33.77H77.5397C77.546 33.4524 77.6587 33.146 77.8597 32.9C78.0862 32.6111 78.382 32.3841 78.7197 32.24C79.0981 32.0756 79.5072 31.9937 79.9197 32C80.5054 31.9669 81.0827 32.1521 81.5397 32.52C81.7391 32.7089 81.8945 32.9395 81.9948 33.1953C82.095 33.4511 82.1377 33.7259 82.1197 34V36.76C82.1115 37.1828 82.1827 37.6034 82.3297 38V38.09L81.2597 38.13ZM79.5597 37.35C79.8798 37.3491 80.194 37.2628 80.4697 37.1C80.7412 36.9529 80.9611 36.726 81.0997 36.45V35.22H80.2997C79.0464 35.22 78.4197 35.5867 78.4197 36.32C78.4125 36.4611 78.4377 36.602 78.4931 36.7319C78.5485 36.8619 78.6329 36.9775 78.7397 37.07C78.97 37.2597 79.2614 37.3592 79.5597 37.35Z" fill="black"/>
<path d="M83.8198 32.14H84.8198V37.29H87.5798V32.14H88.5798V37.29H89.2898L89.1898 39.9H88.2698V38.13H83.8198V32.14Z" fill="black"/>
<path d="M94.3201 32.14H95.3201V38.14H94.3201V33.76L91.5601 38.13H90.5601V32.13H91.5601V36.5L94.3201 32.14Z" fill="black"/>
<path d="M96.72 35.08C96.7131 34.5334 96.8329 33.9926 97.07 33.5C97.2898 33.0469 97.6374 32.668 98.07 32.41C98.4801 32.1495 98.9543 32.0075 99.44 32C99.8156 31.9842 100.19 32.0523 100.536 32.1994C100.882 32.3464 101.191 32.5687 101.44 32.85C101.967 33.4778 102.239 34.2812 102.2 35.1V35.17C102.208 35.7125 102.092 36.2496 101.86 36.74C101.641 37.1908 101.293 37.5666 100.86 37.82C100.43 38.0829 99.934 38.2182 99.43 38.21C99.0544 38.2265 98.6798 38.1588 98.3337 38.0117C97.9876 37.8646 97.6789 37.642 97.43 37.36C96.9034 36.7358 96.632 35.9358 96.67 35.12L96.72 35.08ZM97.72 35.2C97.6908 35.7697 97.8527 36.3328 98.18 36.8C98.3268 36.989 98.5148 37.142 98.7297 37.2472C98.9446 37.3524 99.1807 37.4071 99.42 37.4071C99.6593 37.4071 99.8954 37.3524 100.11 37.2472C100.325 37.142 100.513 36.989 100.66 36.8C100.994 36.2948 101.156 35.6948 101.12 35.09C101.146 34.5192 100.981 33.956 100.65 33.49C100.508 33.2958 100.321 33.1388 100.105 33.0326C99.8891 32.9264 99.6506 32.874 99.41 32.88C99.1734 32.8744 98.9389 32.9261 98.7265 33.0305C98.5141 33.135 98.33 33.2892 98.19 33.48C97.8593 33.9899 97.7048 34.594 97.75 35.2H97.72Z" fill="black"/>
<path d="M108.35 38.13H107.35V35.57H104.6V38.13H103.6V32.13H104.6V34.73H107.35V32.13H108.35V38.13Z" fill="black"/>
<path d="M114.89 38.13H113.89V35.57H111.14V38.13H110.14V32.13H111.14V34.73H113.89V32.13H114.89V38.13Z" fill="black"/>
<path d="M117.65 34.21H119.2C119.783 34.185 120.356 34.3734 120.81 34.74C121.006 34.9169 121.161 35.1351 121.263 35.3789C121.365 35.6227 121.412 35.886 121.4 36.15C121.41 36.4201 121.361 36.6892 121.255 36.938C121.15 37.1869 120.991 37.4095 120.79 37.59C120.331 37.9698 119.745 38.1626 119.15 38.13H116.61V32.13H117.61L117.65 34.21ZM117.65 35.05V37.3H119.17C119.494 37.3195 119.813 37.2119 120.06 37C120.166 36.8945 120.248 36.7678 120.301 36.6282C120.355 36.4886 120.378 36.3392 120.37 36.19C120.375 36.0396 120.351 35.8895 120.298 35.7487C120.244 35.6079 120.164 35.4791 120.06 35.37C119.946 35.2601 119.811 35.1743 119.663 35.1176C119.516 35.0609 119.358 35.0345 119.2 35.04L117.65 35.05ZM123.55 38.14H122.55V32.14H123.55V38.14Z" fill="black"/>
<path d="M127.35 34.33L128.68 32.14H129.88L127.88 35.14L129.88 38.14H128.7L127.32 35.9L126 38.13H124.81L126.81 35.13L124.81 32.13H126L127.35 34.33Z" fill="black"/>
<path d="M138.66 38.13H137.66V33H134.9V38.14H133.9V32.14H138.71L138.66 38.13Z" fill="black"/>
<path d="M145.37 35.2C145.408 35.9813 145.191 36.7538 144.75 37.4C144.559 37.6683 144.305 37.8854 144.01 38.0319C143.715 38.1784 143.389 38.2499 143.06 38.24C142.74 38.2571 142.421 38.2042 142.124 38.085C141.827 37.9658 141.559 37.7832 141.34 37.55V40.43H140.34V32.14H141.28V32.8C141.484 32.5417 141.746 32.3348 142.045 32.1958C142.344 32.0569 142.671 31.9899 143 32C143.33 31.9834 143.658 32.0487 143.957 32.19C144.255 32.3314 144.514 32.5444 144.71 32.81C145.164 33.4729 145.386 34.2677 145.34 35.07L145.37 35.2ZM144.37 35.08C144.402 34.5144 144.251 33.9534 143.94 33.48C143.807 33.2916 143.63 33.1391 143.424 33.0361C143.218 32.9331 142.99 32.8829 142.76 32.89C142.474 32.88 142.191 32.9519 141.945 33.0972C141.699 33.2425 141.499 33.4551 141.37 33.71V36.57C141.502 36.8274 141.705 37.0414 141.955 37.1868C142.205 37.3322 142.491 37.4027 142.78 37.39C143.007 37.3966 143.233 37.3471 143.437 37.246C143.641 37.1448 143.817 36.9951 143.95 36.81C144.256 36.2913 144.392 35.69 144.34 35.09L144.37 35.08Z" fill="black"/>
<path d="M146.4 35.08C146.393 34.5334 146.513 33.9926 146.75 33.5C146.97 33.0469 147.317 32.668 147.75 32.41C148.174 32.1523 148.663 32.0205 149.16 32.03C149.536 32.0135 149.91 32.0813 150.256 32.2284C150.602 32.3754 150.911 32.5981 151.16 32.88C151.687 33.5078 151.959 34.3111 151.92 35.13V35.2C151.931 35.7416 151.818 36.2786 151.59 36.77C151.371 37.2208 151.023 37.5966 150.59 37.85C150.16 38.1134 149.664 38.2487 149.16 38.24C148.784 38.2565 148.41 38.1888 148.064 38.0417C147.718 37.8946 147.409 37.6719 147.16 37.39C146.633 36.7658 146.362 35.9658 146.4 35.15V35.08ZM147.4 35.2C147.371 35.7697 147.533 36.3328 147.86 36.8C148.007 36.989 148.195 37.1419 148.41 37.2472C148.625 37.3524 148.861 37.4071 149.1 37.4071C149.339 37.4071 149.575 37.3524 149.79 37.2472C150.005 37.1419 150.193 36.989 150.34 36.8C150.674 36.2945 150.835 35.6947 150.8 35.09C150.826 34.5192 150.661 33.9559 150.33 33.49C150.188 33.2958 150.001 33.1388 149.785 33.0326C149.569 32.9263 149.331 32.874 149.09 32.88C148.853 32.8744 148.619 32.926 148.406 33.0305C148.194 33.135 148.01 33.2892 147.87 33.48C147.539 33.9899 147.385 34.594 147.43 35.2H147.4Z" fill="black"/>
<path d="M155.62 38.24C155.249 38.2567 154.878 38.1939 154.533 38.056C154.188 37.918 153.877 37.708 153.62 37.44C153.096 36.8538 152.823 36.0854 152.86 35.3V35.11C152.85 34.561 152.966 34.017 153.2 33.52C153.421 33.0654 153.768 32.6837 154.2 32.42C154.594 32.158 155.057 32.0187 155.53 32.02C155.872 32.0006 156.214 32.06 156.529 32.1935C156.845 32.3269 157.125 32.531 157.35 32.79C157.822 33.4259 158.053 34.2095 158 35V35.43H153.9C153.891 35.9544 154.076 36.4636 154.42 36.86C154.577 37.0379 154.771 37.1793 154.989 37.2743C155.207 37.3693 155.442 37.4156 155.68 37.41C156.001 37.421 156.319 37.345 156.6 37.19C156.856 37.0377 157.08 36.8374 157.26 36.6L157.89 37.09C157.647 37.4659 157.309 37.7705 156.911 37.9726C156.512 38.1747 156.066 38.267 155.62 38.24ZM155.49 32.87C155.301 32.8721 155.115 32.9132 154.943 32.9906C154.771 33.068 154.616 33.1802 154.49 33.32C154.185 33.6771 154.003 34.1221 153.97 34.59H156.97V34.51C156.966 34.0715 156.819 33.6464 156.55 33.3C156.418 33.1516 156.254 33.0357 156.07 32.9611C155.886 32.8865 155.688 32.8553 155.49 32.87Z" fill="black"/>
<path d="M161 35.58H160.25V38.13H159.25V32.13H160.25V34.67H160.92L162.92 32.13H164.16L161.82 35L164.39 38.11H163.09L161 35.58Z" fill="black"/>
<path d="M169.72 33H167.72V38.16H166.72V33H164.72V32.17H169.72V33Z" fill="black"/>
<path d="M170.21 35.08C170.203 34.5334 170.323 33.9926 170.56 33.5C170.78 33.0469 171.127 32.668 171.56 32.41C171.985 32.1523 172.474 32.0205 172.97 32.03C173.346 32.0135 173.72 32.0813 174.066 32.2284C174.412 32.3754 174.721 32.5981 174.97 32.88C175.497 33.5078 175.769 34.3111 175.73 35.13V35.2C175.741 35.7416 175.628 36.2786 175.4 36.77C175.181 37.2208 174.833 37.5966 174.4 37.85C173.97 38.1134 173.474 38.2487 172.97 38.24C172.594 38.2565 172.22 38.1888 171.874 38.0417C171.528 37.8946 171.219 37.6719 170.97 37.39C170.443 36.7658 170.172 35.9658 170.21 35.15V35.08ZM171.21 35.2C171.181 35.7697 171.343 36.3328 171.67 36.8C171.817 36.989 172.005 37.1419 172.22 37.2472C172.435 37.3524 172.671 37.4071 172.91 37.4071C173.149 37.4071 173.385 37.3524 173.6 37.2472C173.815 37.1419 174.003 36.989 174.15 36.8C174.484 36.2945 174.645 35.6947 174.61 35.09C174.636 34.5192 174.471 33.9559 174.14 33.49C173.998 33.2958 173.811 33.1388 173.595 33.0326C173.379 32.9263 173.141 32.874 172.9 32.88C172.663 32.8744 172.429 32.926 172.217 33.0305C172.004 33.135 171.82 33.2892 171.68 33.48C171.349 33.9899 171.195 34.594 171.24 35.2H171.21Z" fill="black"/>
<path d="M177 38.13V32.13H179.34C179.978 32.0933 180.612 32.239 181.17 32.55C181.376 32.6796 181.545 32.8619 181.657 33.0781C181.77 33.2943 181.822 33.5366 181.81 33.78C181.811 34.0507 181.724 34.3143 181.56 34.53C181.369 34.7694 181.112 34.9468 180.82 35.04C181.155 35.1111 181.46 35.286 181.69 35.54C181.909 35.784 182.027 36.1022 182.02 36.43C182.032 36.6743 181.982 36.9177 181.876 37.1379C181.769 37.3581 181.609 37.5479 181.41 37.69C180.9 38.0115 180.302 38.1653 179.7 38.13H177ZM178 34.68H179.32C180.28 34.68 180.76 34.4 180.76 33.84C180.76 33.28 180.33 33 179.47 33H178.07L178 34.68ZM178 35.5V37.31H179.69C180.041 37.3422 180.392 37.2579 180.69 37.07C180.794 36.9931 180.878 36.8918 180.934 36.775C180.989 36.6581 181.016 36.5294 181.01 36.4C181.01 35.8 180.57 35.5 179.69 35.5H178Z" fill="black"/>
</g>
<defs>
<clipPath id="clip0">
<rect width="217.21" height="40.43" fill="white"/>
</clipPath>
</defs>
</svg>
