<svg width="46" height="46" viewBox="0 0 46 46" fill="none" xmlns="http://www.w3.org/2000/svg">
<ellipse cx="18.0553" cy="27.1907" rx="18.0553" ry="17.9124" fill="#2E2E2E"/>
<ellipse cx="18.0553" cy="27.1907" rx="6.01845" ry="5.9708" fill="#FF0000"/>
<path d="M16.6852 25.7894C15.9048 26.5405 15.8856 27.7768 16.6423 28.5507C17.3991 29.3246 18.6452 29.3431 19.4256 28.5919L16.6852 25.7894ZM45.9681 2.24862C45.9849 1.17025 45.1173 0.28301 44.0304 0.266912L26.3178 0.00458604C25.2308 -0.0115116 24.3361 0.849629 24.3194 1.928C24.3026 3.00637 25.1702 3.89361 26.2571 3.9097L42.0017 4.14288L41.7591 19.7633C41.7423 20.8417 42.6099 21.729 43.6968 21.7451C44.7838 21.7612 45.6785 20.9 45.6952 19.8216L45.9681 2.24862ZM19.4256 28.5919L45.3703 3.62075L42.6299 0.818193L16.6852 25.7894L19.4256 28.5919Z" fill="#FF0000"/>
</svg>
