<svg width="28" height="28" viewBox="0 0 28 28" fill="none" xmlns="http://www.w3.org/2000/svg">
<path d="M21.4074 13.1111H14.5926V6.59259C14.5926 6.26489 14.3271 6 14 6C13.6729 6 13.4074 6.26489 13.4074 6.59259V13.1111H6.59259C6.26548 13.1111 6 13.376 6 13.7037C6 14.0314 6.26548 14.2963 6.59259 14.2963H13.4074V21.4074C13.4074 21.7351 13.6729 22 14 22C14.3271 22 14.5926 21.7351 14.5926 21.4074V14.2963H21.4074C21.7345 14.2963 22 14.0314 22 13.7037C22 13.376 21.7345 13.1111 21.4074 13.1111Z" fill="black"/>
<circle cx="14" cy="14" r="13.5" stroke="#2E2E2E"/>
</svg>
