<svg width="76" height="82" viewBox="0 0 76 82" fill="none" xmlns="http://www.w3.org/2000/svg">
<path d="M50.5277 1.1508C50.0587 0.859229 49.4421 1.0031 49.1505 1.47215C48.8589 1.9412 49.0028 2.5578 49.4719 2.84937L50.5277 1.1508ZM7.20957 64.3877C6.87137 64.8243 6.95117 65.4524 7.3878 65.7906L14.503 71.3018C14.9397 71.64 15.5678 71.5602 15.906 71.1236C16.2442 70.687 16.1644 70.0589 15.7277 69.7207L9.40309 64.8218L14.3019 58.4972C14.6401 58.0605 14.5603 57.4324 14.1237 57.0942C13.6871 56.756 13.059 56.8358 12.7208 57.2724L7.20957 64.3877ZM49.4719 2.84937C58.3465 8.36603 64.3978 21.5139 60.1143 34.3031C55.8537 47.024 41.2015 59.7742 7.87413 64.008L8.12618 65.9921C41.7991 61.7143 57.3967 48.7144 62.0108 34.9383C66.602 21.2304 60.153 7.13405 50.5277 1.1508L49.4719 2.84937Z" fill="#FF0000"/>
</svg>
