<svg width="102" height="111" viewBox="0 0 102 111" fill="none" xmlns="http://www.w3.org/2000/svg">
<path d="M66.5697 1.67826C66.1158 1.36358 65.4928 1.47641 65.1781 1.93028C64.8634 2.38415 64.9762 3.00718 65.4301 3.32186L66.5697 1.67826ZM21.1981 96.9024C20.868 97.3452 20.9594 97.9718 21.4022 98.3019L28.618 103.681C29.0608 104.011 29.6873 103.919 30.0174 103.477C30.3475 103.034 30.2561 102.407 29.8133 102.077L23.3993 97.296L28.1805 90.882C28.5106 90.4392 28.4192 89.8127 27.9764 89.4826C27.5336 89.1525 26.9071 89.2439 26.577 89.6867L21.1981 96.9024ZM65.4301 3.32186C74.5734 9.66112 79.3617 18.1633 80.7054 27.4709C82.0528 36.8042 79.9421 47.0058 75.1655 56.6821C65.6028 76.0542 45.4861 93.0642 21.8556 96.5106L22.1442 98.4896C46.5132 94.9355 67.1465 77.4453 76.9589 57.5674C81.8699 47.6188 84.103 37.0079 82.6849 27.1851C81.263 17.3365 76.1764 8.33882 66.5697 1.67826L65.4301 3.32186Z" fill="#FF0000"/>
</svg>
