<svg width="88" height="98" viewBox="0 0 88 98" fill="none" xmlns="http://www.w3.org/2000/svg">
<path d="M71.9938 5.39122C71.9336 4.84222 71.4398 4.44595 70.8908 4.50611C70.3418 4.56628 69.9455 5.0601 70.0057 5.6091L71.9938 5.39122ZM1.23544 78.8557C0.87944 79.278 0.933138 79.9089 1.35537 80.2649L8.23612 86.0662C8.65835 86.4222 9.28924 86.3685 9.64523 85.9462C10.0012 85.524 9.94754 84.8931 9.5253 84.5371L3.40909 79.3804L8.56582 73.2642C8.92182 72.8419 8.86812 72.2111 8.44589 71.8551C8.02365 71.4991 7.39277 71.5528 7.03677 71.975L1.23544 78.8557ZM70.0057 5.6091C73.9373 41.4848 48.4239 74.5454 1.91516 78.5039L2.08477 80.4967C49.5761 76.4546 76.0623 42.5157 71.9938 5.39122L70.0057 5.6091Z" fill="#FF0000"/>
</svg>
