<svg width="559" height="562" viewBox="0 0 559 562" fill="none" xmlns="http://www.w3.org/2000/svg">
<path d="M120.988 49.2953C125.617 46.108 130.341 43.0611 135.153 40.1586L192.732 135.63C189.839 137.374 186.999 139.206 184.217 141.122L120.988 49.2953Z" fill="#FF0000"/>
<path d="M99.6947 65.5133C103.997 61.8978 108.408 58.413 112.921 55.0635L179.368 144.589C176.655 146.603 174.004 148.697 171.417 150.871L99.6947 65.5133Z" fill="#FF0000"/>
<path d="M81.8636 81.8637C85.8376 77.8896 89.9306 74.0364 94.1369 70.3092L168.077 153.753C165.548 155.994 163.088 158.31 160.699 160.699L81.8636 81.8637Z" fill="#FF0000"/>
<path d="M63.3448 102.307C66.9077 97.9611 70.6009 93.7232 74.4194 89.5995L156.224 165.349C153.929 167.828 151.709 170.375 149.567 172.988L63.3448 102.307Z" fill="#FF0000"/>
<path d="M47.6237 123.443C50.7616 118.781 54.0395 114.214 57.4528 109.749L146.025 177.461C143.974 180.145 142.003 182.89 140.117 185.693L47.6237 123.443Z" fill="#FF0000"/>
<path d="M34.1167 145.682C36.8075 140.748 39.6465 135.896 42.6298 131.133L137.115 190.315C135.322 193.178 133.615 196.095 131.998 199.061L34.1167 145.682Z" fill="#FF0000"/>
<path d="M23.2719 167.842C25.5171 162.69 27.9171 157.607 30.4688 152.6L129.805 203.219C128.271 206.229 126.829 209.285 125.479 212.382L23.2719 167.842Z" fill="#FF0000"/>
<path d="M14.4285 190.858C16.2108 185.528 18.1536 180.253 20.254 175.041L123.665 216.708C122.402 219.842 121.234 223.013 120.163 226.217L14.4285 190.858Z" fill="#FF0000"/>
<path d="M7.2483 216.26C8.5199 210.786 9.95633 205.351 11.5556 199.963L118.436 231.69C117.475 234.928 116.611 238.195 115.847 241.486L7.2483 216.26Z" fill="#FF0000"/>
<path d="M2.60924 241.398C3.37538 235.83 4.30927 230.287 5.40965 224.776L114.742 246.605C114.08 249.918 113.519 253.25 113.058 256.597L2.60924 241.398Z" fill="#FF0000"/>
<path d="M0.240893 267.898C0.474177 262.283 0.876773 256.676 1.44813 251.085L112.36 262.419C112.017 265.78 111.775 269.151 111.635 272.526L0.240893 267.898Z" fill="#FF0000"/>
<path d="M0.625094 298.182C0.249432 292.575 0.0429864 286.957 0.00603974 281.337L111.494 280.604C111.516 283.983 111.64 287.359 111.866 290.73L0.625094 298.182Z" fill="#FF0000"/>
<path d="M3.58632 324.131C2.6889 318.583 1.95902 313.009 1.39768 307.417L112.33 296.281C112.668 299.642 113.106 302.993 113.646 306.328L3.58632 324.131Z" fill="#FF0000"/>
<path d="M9.33114 351.117C7.89108 345.685 6.6152 340.21 5.50524 334.701L114.799 312.682C115.466 315.993 116.233 319.284 117.099 322.55L9.33114 351.117Z" fill="#FF0000"/>
<path d="M17.0176 375.538C15.0865 370.26 13.3151 364.925 11.7056 359.54L118.526 327.613C119.494 330.85 120.559 334.057 121.719 337.229L17.0176 375.538Z" fill="#FF0000"/>
<path d="M26.9037 399.147C24.4979 394.068 22.2458 388.917 20.1506 383.702L123.603 342.137C124.862 345.272 126.216 348.368 127.662 351.421L26.9037 399.147Z" fill="#FF0000"/>
<path d="M39.8776 423.38C36.9845 418.561 34.2374 413.657 31.64 408.673L130.509 357.147C132.07 360.143 133.722 363.091 135.461 365.987L39.8776 423.38Z" fill="#FF0000"/>
<path d="M54.5478 445.382C51.2123 440.858 48.014 436.236 44.9573 431.52L138.514 370.88C140.352 373.715 142.274 376.494 144.279 379.213L54.5478 445.382Z" fill="#FF0000"/>
<path d="M73.2228 468.1C69.4305 463.952 65.7642 459.691 62.2288 455.322L148.896 385.188C151.021 387.814 153.225 390.376 155.505 392.869L73.2228 468.1Z" fill="#FF0000"/>
<path d="M93.1102 487.776C88.9222 484.029 84.8483 480.155 80.8938 476.162L160.116 397.715C162.493 400.116 164.942 402.444 167.459 404.697L93.1102 487.776Z" fill="#FF0000"/>
<path d="M120.723 509.522C116.098 506.329 111.57 502.998 107.145 499.532L175.896 411.763C178.556 413.846 181.277 415.849 184.058 417.768L120.723 509.522Z" fill="#FF0000"/>
<path d="M148.676 526.493C143.71 523.862 138.824 521.082 134.025 518.157L192.054 422.959C194.938 424.717 197.875 426.388 200.861 427.969L148.676 526.493Z" fill="#FF0000"/>
<path d="M181.966 541.43C176.699 539.469 171.493 537.349 166.354 535.074L211.487 433.128C214.576 434.495 217.705 435.77 220.871 436.948L181.966 541.43Z" fill="#FF0000"/>
<path d="M210.962 550.466C205.513 549.088 200.107 547.546 194.752 545.842L228.557 439.6C231.776 440.625 235.026 441.552 238.301 442.38L210.962 550.466Z" fill="#FF0000"/>
<path d="M238.549 555.984C232.989 555.16 227.456 554.169 221.956 553.012L244.91 443.911C248.216 444.606 251.542 445.202 254.884 445.697L238.549 555.984Z" fill="#FF0000"/>
<path d="M270.223 558.846C264.606 558.659 258.996 558.303 253.401 557.779L263.811 446.776C267.175 447.091 270.547 447.305 273.924 447.417L270.223 558.846Z" fill="#FF0000"/>
<path d="M300.5 558.21C294.896 558.632 289.281 558.885 283.661 558.969L282.001 447.491C285.379 447.441 288.755 447.289 292.124 447.035L300.5 558.21Z" fill="#FF0000"/>
<path d="M327.798 554.795C322.262 555.766 316.699 556.57 311.115 557.206L298.504 446.432C301.861 446.049 305.205 445.566 308.532 444.982L327.798 554.795Z" fill="#FF0000"/>
<path d="M355.621 548.435C350.213 549.965 344.76 551.332 339.27 552.534L315.428 443.623C318.729 442.901 322.006 442.079 325.257 441.159L355.621 548.435Z" fill="#FF0000"/>
<path d="M383 539.13C377.779 541.212 372.497 543.135 367.161 544.897L332.194 439.033C335.401 437.973 338.577 436.817 341.715 435.566L383 539.13Z" fill="#FF0000"/>
<path d="M408.622 527.387C403.637 529.983 398.575 532.428 393.444 534.72L347.992 432.915C351.077 431.538 354.12 430.068 357.116 428.507L408.622 527.387Z" fill="#FF0000"/>
<path d="M432.241 513.573C427.534 516.645 422.736 519.573 417.853 522.355L362.665 425.482C365.601 423.81 368.485 422.05 371.314 420.204L432.241 513.573Z" fill="#FF0000"/>
<path d="M454.43 497.49C450.047 501.008 445.558 504.392 440.971 507.639L376.562 416.636C379.319 414.685 382.017 412.65 384.652 410.536L454.43 497.49Z" fill="#FF0000"/>
<path d="M474.522 479.716C470.497 483.637 466.353 487.437 462.098 491.108L389.261 406.7C391.819 404.492 394.31 402.209 396.73 399.852L474.522 479.716Z" fill="#FF0000"/>
<path d="M493.531 459.252C489.917 463.556 486.173 467.75 482.306 471.828L401.408 395.11C403.733 392.659 405.983 390.138 408.156 387.551L493.531 459.252Z" fill="#FF0000"/>
<path d="M510.765 436.461C507.609 441.111 504.313 445.665 500.882 450.117L412.575 382.059C414.637 379.383 416.618 376.646 418.515 373.851L510.765 436.461Z" fill="#FF0000"/>
<path d="M526.602 410.117C523.975 415.086 521.2 419.974 518.278 424.776L423.032 366.826C424.788 363.94 426.456 361.002 428.035 358.015L526.602 410.117Z" fill="#FF0000"/>
<path d="M538.173 385.37C536.044 390.571 533.759 395.707 531.32 400.771L430.872 352.397C432.337 349.353 433.711 346.266 434.991 343.139L538.173 385.37Z" fill="#FF0000"/>
<path d="M546.134 363.326C544.448 368.687 542.601 373.996 540.595 379.246L436.447 339.458C437.652 336.303 438.763 333.111 439.776 329.888L546.134 363.326Z" fill="#FF0000"/>
<path d="M552.104 341.203C550.863 346.684 549.458 352.127 547.889 357.524L440.831 326.401C441.774 323.157 442.619 319.885 443.365 316.59L552.104 341.203Z" fill="#FF0000"/>
<path d="M556.29 318.328C555.509 323.894 554.561 329.435 553.446 334.943L444.171 312.827C444.841 309.516 445.411 306.185 445.881 302.84L556.29 318.328Z" fill="#FF0000"/>
<path d="M558.982 276.367C559.045 281.987 558.939 287.607 558.663 293.221L447.307 287.748C447.473 284.373 447.537 280.995 447.499 277.617L558.982 276.367Z" fill="#FF0000"/>
<path d="M558.395 297.878C558.025 303.486 557.487 309.082 556.78 314.657L446.175 300.633C446.6 297.282 446.924 293.918 447.146 290.547L558.395 297.878Z" fill="#FF0000"/>
<path d="M557.958 255.386C558.443 260.986 558.758 266.598 558.905 272.216L447.453 275.122C447.365 271.744 447.175 268.371 446.883 265.005L557.958 255.386Z" fill="#FF0000"/>
<path d="M554.725 233.069C555.705 238.603 556.517 244.165 557.16 249.748L446.404 262.519C446.017 259.163 445.529 255.819 444.94 252.493L554.725 233.069Z" fill="#FF0000"/>
<path d="M551.117 213.586C552.442 219.048 553.602 224.548 554.596 230.079L444.863 249.793C444.265 246.468 443.568 243.161 442.771 239.878L551.117 213.586Z" fill="#FF0000"/>
<path d="M545.511 193.719C547.236 199.068 548.799 204.468 550.198 209.911L442.219 237.669C441.378 234.397 440.438 231.152 439.402 227.936L545.511 193.719Z" fill="#FF0000"/>
<path d="M538.509 174.455C540.621 179.663 542.576 184.934 544.371 190.26L438.716 225.857C437.637 222.655 436.462 219.487 435.193 216.357L538.509 174.455Z" fill="#FF0000"/>
<path d="M530.348 156.231C532.827 161.275 535.153 166.392 537.323 171.577L434.48 214.626C433.175 211.51 431.777 208.434 430.287 205.402L530.348 156.231Z" fill="#FF0000"/>
<path d="M520.805 138.46C523.641 143.312 526.33 148.249 528.868 153.263L429.397 203.618C427.872 200.604 426.255 197.636 424.55 194.72L520.805 138.46Z" fill="#FF0000"/>
<path d="M509.432 120.593C512.628 125.217 515.683 129.936 518.593 134.743L423.221 192.485C421.472 189.595 419.635 186.759 417.714 183.98L509.432 120.593Z" fill="#FF0000"/>
<path d="M496.77 103.676C500.305 108.045 503.708 112.519 506.974 117.093L416.237 181.876C414.274 179.126 412.228 176.437 410.103 173.811L496.77 103.676Z" fill="#FF0000"/>
<path d="M468.591 73.6733C472.73 77.4755 476.753 81.4016 480.655 85.4464L400.416 162.853C398.071 160.421 395.652 158.061 393.165 155.776L468.591 73.6733Z" fill="#FF0000"/>
<path d="M451.544 59.2251C455.973 62.6845 460.297 66.2767 464.51 69.9968L390.711 153.566C388.179 151.33 385.58 149.17 382.917 147.091L451.544 59.2251Z" fill="#FF0000"/>
<path d="M433.688 46.3772C438.376 49.4776 442.969 52.7186 447.461 56.0959L380.463 145.21C377.762 143.18 375.002 141.231 372.184 139.368L433.688 46.3772Z" fill="#FF0000"/>
<path d="M414.583 34.8109C419.503 37.5271 424.34 40.3911 429.088 43.399L369.419 137.578C366.565 135.769 363.657 134.048 360.7 132.415L414.583 34.8109Z" fill="#FF0000"/>
<path d="M394.017 24.5369C399.143 26.8396 404.2 29.2964 409.178 31.9039L357.451 130.668C354.458 129.1 351.419 127.624 348.337 126.239L394.017 24.5369Z" fill="#FF0000"/>
<path d="M374.276 16.5594C379.563 18.4652 384.792 20.5299 389.954 22.7509L345.895 125.166C342.792 123.831 339.649 122.59 336.471 121.444L374.276 16.5594Z" fill="#FF0000"/>
<path d="M354.117 10.1441C359.533 11.6445 364.902 13.3079 370.218 15.132L334.031 120.586C330.836 119.489 327.608 118.49 324.353 117.588L354.117 10.1441Z" fill="#FF0000"/>
<path d="M333.204 5.20803C338.72 6.2879 344.201 7.53387 349.642 8.94426L321.663 116.866C318.392 116.019 315.097 115.27 311.782 114.621L333.204 5.20803Z" fill="#FF0000"/>
<path d="M309.719 1.63847C315.307 2.24611 320.874 3.02214 326.415 3.96548L307.701 113.874C304.37 113.307 301.024 112.84 297.665 112.475L309.719 1.63847Z" fill="#FF0000"/>
<path d="M287.058 0.102213C292.676 0.254192 298.288 0.575584 303.887 1.06595L294.159 112.131C290.794 111.836 287.42 111.643 284.043 111.551L287.058 0.102213Z" fill="#FF0000"/>
<path d="M263.932 0.433918C269.543 0.120876 275.163 -0.022848 280.783 0.0029431L280.271 111.492C276.893 111.476 273.515 111.563 270.142 111.751L263.932 0.433918Z" fill="#FF0000"/>
<path d="M240.01 2.80377C245.574 2.00972 251.16 1.38366 256.762 0.926451L265.832 112.047C262.465 112.322 259.107 112.698 255.762 113.175L240.01 2.80377Z" fill="#FF0000"/>
<path d="M216.793 7.12504C222.27 5.86415 227.784 4.76874 233.327 3.8403L251.745 113.798C248.413 114.357 245.099 115.015 241.806 115.773L216.793 7.12504Z" fill="#FF0000"/>
<path d="M192.796 13.7883C198.139 12.0449 203.533 10.463 208.972 9.04484L237.105 116.927C233.836 117.779 230.593 118.73 227.382 119.778L192.796 13.7883Z" fill="#FF0000"/>
<path d="M170.561 22.1042C175.737 19.9137 180.977 17.8798 186.276 16.0053L223.462 121.111C220.277 122.238 217.127 123.46 214.016 124.777L170.561 22.1042Z" fill="#FF0000"/>
<path d="M145.679 34.1184C150.613 31.4275 155.627 28.8861 160.714 26.4976L208.097 127.418C205.039 128.854 202.025 130.381 199.059 131.999L145.679 34.1184Z" fill="#FF0000"/>
<path d="M494.32 100.691C490.952 96.6451 487.47 92.6947 483.879 88.845L402.354 164.896C404.513 167.21 406.606 169.584 408.63 172.017L494.32 100.691Z" fill="#FF0000"/>
</svg>
