<svg width="498" height="494" viewBox="0 0 498 494" fill="none" xmlns="http://www.w3.org/2000/svg">
<path d="M494 247C494 383.414 383.414 494 247 494C110.586 494 0 383.414 0 247C0 110.586 110.586 0 247 0C383.414 0 494 110.586 494 247ZM115.356 247C115.356 319.705 174.295 378.644 247 378.644C319.705 378.644 378.644 319.705 378.644 247C378.644 174.295 319.705 115.356 247 115.356C174.295 115.356 115.356 174.295 115.356 247Z" fill="#EEEEEE"/>
<mask id="path-2-inside-1" fill="white">
<path d="M492.089 209.19C489.131 190.093 483.941 171.408 476.628 153.521L369.852 197.178C373.75 206.712 376.516 216.67 378.093 226.848L492.089 209.19Z"/>
</mask>
<path d="M492.089 209.19C489.131 190.093 483.941 171.408 476.628 153.521L369.852 197.178C373.75 206.712 376.516 216.67 378.093 226.848L492.089 209.19Z" fill="#FF0000" stroke="#FF0000" stroke-width="2" mask="url(#path-2-inside-1)"/>
<mask id="path-3-inside-2" fill="white">
<path d="M494.916 253.446C495.241 240.983 494.623 228.514 493.065 216.145L378.613 230.555C379.443 237.147 379.773 243.793 379.6 250.436L494.916 253.446Z"/>
</mask>
<path d="M494.916 253.446C495.241 240.983 494.623 228.514 493.065 216.145L378.613 230.555C379.443 237.147 379.773 243.793 379.6 250.436L494.916 253.446Z" fill="#FF0000" stroke="#FF0000" stroke-width="2" mask="url(#path-3-inside-2)"/>
<mask id="path-4-inside-3" fill="white">
<path d="M468.733 357.842C483.728 327.981 492.508 295.389 494.542 262.037L379.4 255.014C378.316 272.79 373.637 290.161 365.645 306.076L468.733 357.842Z"/>
</mask>
<path d="M468.733 357.842C483.728 327.981 492.508 295.389 494.542 262.037L379.4 255.014C378.316 272.79 373.637 290.161 365.645 306.076L468.733 357.842Z" fill="#FF0000" stroke="#FF0000" stroke-width="2" mask="url(#path-4-inside-3)"/>
<path d="M435.738 196.282L437.493 195.861C438.329 195.661 438.898 195.303 439.2 194.789C439.502 194.274 439.57 193.671 439.405 192.98C439.244 192.312 438.918 191.839 438.426 191.564C437.942 191.286 437.35 191.232 436.651 191.399C436.021 191.551 435.534 191.852 435.193 192.304C434.85 192.748 434.744 193.247 434.877 193.801L431.584 194.592C431.376 193.726 431.422 192.895 431.722 192.1C432.027 191.296 432.551 190.6 433.293 190.012C434.043 189.422 434.924 189.006 435.934 188.763C437.689 188.342 439.165 188.434 440.363 189.038C441.558 189.635 442.333 190.67 442.687 192.144C442.869 192.904 442.805 193.658 442.495 194.408C442.185 195.157 441.694 195.793 441.024 196.315C442.039 196.425 442.855 196.76 443.471 197.319C444.095 197.876 444.516 198.611 444.735 199.522C445.088 200.996 444.832 202.307 443.967 203.455C443.109 204.6 441.795 205.386 440.025 205.811C438.369 206.208 436.908 206.097 435.643 205.476C434.385 204.854 433.583 203.825 433.239 202.39L436.532 201.599C436.681 202.222 437.035 202.676 437.593 202.959C438.159 203.241 438.784 203.3 439.468 203.136C440.25 202.949 440.813 202.597 441.155 202.081C441.503 201.555 441.595 200.951 441.431 200.267C441.033 198.611 439.923 198.002 438.1 198.439L436.356 198.858L435.738 196.282ZM450.119 207.546L448.182 207.059L448.415 206.22C448.701 205.171 448.742 204.185 448.536 203.262L447.924 200.709L450.704 200.042L451.24 202.324C451.435 203.169 451.426 204.071 451.214 205.029C451.003 205.988 450.637 206.827 450.119 207.546ZM461.57 184.805L458.693 201.09L455.217 201.924L458.302 186.456L450.052 188.436L449.412 185.77L461.127 182.959L461.57 184.805ZM463.966 185.652C463.722 184.634 463.855 183.73 464.364 182.941C464.872 182.144 465.662 181.617 466.733 181.36C467.819 181.099 468.768 181.205 469.581 181.677C470.391 182.141 470.925 182.909 471.182 183.98L471.379 184.801C471.625 185.826 471.492 186.73 470.981 187.511C470.469 188.293 469.678 188.812 468.607 189.069C467.528 189.328 466.58 189.226 465.762 188.764C464.949 188.292 464.416 187.524 464.16 186.461L463.966 185.652ZM466.365 186.004C466.474 186.46 466.692 186.797 467.017 187.016C467.349 187.226 467.727 187.28 468.153 187.178C468.578 187.076 468.883 186.854 469.066 186.513C469.249 186.171 469.284 185.765 469.171 185.294L468.969 184.451C468.859 183.995 468.646 183.657 468.327 183.436C468.009 183.215 467.63 183.157 467.189 183.263C466.772 183.363 466.467 183.585 466.276 183.928C466.084 184.264 466.047 184.678 466.165 185.172L466.365 186.004ZM474.137 193.081C473.891 192.055 474.027 191.151 474.546 190.368C475.064 189.577 475.854 189.053 476.918 188.798C477.996 188.539 478.941 188.642 479.751 189.106C480.567 189.561 481.106 190.332 481.367 191.418L481.564 192.239C481.808 193.257 481.679 194.159 481.177 194.947C480.673 195.726 479.878 196.247 478.792 196.507C477.698 196.77 476.745 196.665 475.932 196.193C475.12 195.721 474.589 194.965 474.339 193.924L474.137 193.081ZM476.538 193.445C476.638 193.863 476.861 194.187 477.206 194.417C477.55 194.648 477.927 194.714 478.338 194.616C479.265 194.393 479.605 193.769 479.359 192.744L479.151 191.878C479.042 191.422 478.825 191.088 478.501 190.877C478.175 190.658 477.8 190.599 477.374 190.701C476.949 190.803 476.641 191.026 476.45 191.369C476.257 191.704 476.218 192.111 476.333 192.59L476.538 193.445ZM471.146 196.787L469.331 196.307L474.321 181.395L476.136 181.875L471.146 196.787Z" fill="white"/>
<path d="M443.846 286.141L443.147 288.841L442.829 288.759C441.341 288.397 440.046 288.473 438.945 288.987C437.851 289.502 437.04 290.402 436.514 291.686C437.622 291.021 438.846 290.862 440.185 291.209C441.621 291.581 442.63 292.392 443.211 293.64C443.791 294.888 443.864 296.351 443.429 298.03C443.15 299.104 442.664 300.015 441.97 300.763C441.283 301.513 440.45 302.02 439.47 302.282C438.497 302.547 437.474 302.54 436.4 302.262C434.661 301.811 433.411 300.841 432.651 299.353C431.898 297.867 431.783 296.114 432.306 294.094L432.612 292.915C433.077 291.122 433.823 289.629 434.851 288.435C435.888 287.235 437.135 286.424 438.592 286.002C440.059 285.575 441.629 285.575 443.302 286L443.846 286.141ZM438.504 293.582C437.975 293.445 437.458 293.46 436.955 293.628C436.453 293.789 436.041 294.07 435.72 294.471L435.461 295.469C435.177 296.565 435.17 297.48 435.44 298.211C435.713 298.936 436.238 299.399 437.017 299.601C437.721 299.783 438.359 299.654 438.933 299.214C439.517 298.768 439.924 298.102 440.153 297.217C440.386 296.317 440.355 295.535 440.059 294.869C439.764 294.203 439.245 293.774 438.504 293.582ZM443.883 308.377L442.402 307.037L443.002 306.405C443.747 305.614 444.246 304.763 444.499 303.852L445.157 301.311L447.925 302.028L447.326 304.294C447.101 305.131 446.669 305.923 446.032 306.67C445.395 307.417 444.678 307.986 443.883 308.377ZM460.951 301.748L462.823 302.233L462.138 304.876L460.266 304.391L459.34 307.964L456.062 307.115L456.988 303.541L450.215 301.786L450.603 299.683L460.308 290.589L463.62 291.447L460.951 301.748ZM454.02 299.951L457.673 300.898L459.184 295.067L458.871 295.386L454.02 299.951ZM466.393 295.556C466.656 294.542 467.197 293.807 468.018 293.35C468.841 292.885 469.785 292.791 470.851 293.067C471.933 293.347 472.721 293.886 473.217 294.685C473.714 295.475 473.824 296.404 473.548 297.47L473.336 298.287C473.072 299.308 472.53 300.043 471.711 300.493C470.893 300.942 469.95 301.029 468.884 300.753C467.81 300.474 467.021 299.939 466.516 299.146C466.021 298.348 465.91 297.42 466.184 296.361L466.393 295.556ZM468.345 296.993C468.227 297.447 468.261 297.847 468.445 298.194C468.64 298.535 468.948 298.76 469.372 298.87C469.795 298.979 470.168 298.927 470.49 298.712C470.812 298.496 471.034 298.154 471.156 297.686L471.373 296.846C471.491 296.392 471.461 295.993 471.284 295.649C471.107 295.304 470.799 295.075 470.361 294.961C469.945 294.854 469.572 294.906 469.242 295.12C468.914 295.325 468.687 295.674 468.56 296.165L468.345 296.993ZM471.881 306.892C472.146 305.871 472.691 305.137 473.517 304.689C474.345 304.234 475.289 304.144 476.348 304.418C477.422 304.696 478.207 305.231 478.704 306.022C479.211 306.807 479.324 307.74 479.044 308.821L478.832 309.638C478.57 310.651 478.032 311.388 477.219 311.847C476.408 312.298 475.462 312.384 474.38 312.104C473.291 311.822 472.499 311.281 472.004 310.483C471.508 309.685 471.395 308.768 471.663 307.732L471.881 306.892ZM473.83 308.342C473.722 308.758 473.766 309.148 473.962 309.514C474.158 309.879 474.46 310.115 474.868 310.221C475.791 310.46 476.384 310.069 476.649 309.048L476.872 308.186C476.99 307.732 476.955 307.336 476.769 306.997C476.584 306.65 476.28 306.422 475.857 306.313C475.433 306.203 475.057 306.255 474.727 306.468C474.399 306.673 474.174 307.014 474.05 307.491L473.83 308.342ZM467.499 308.759L466.123 307.482L477.534 296.663L478.91 297.94L467.499 308.759Z" fill="white"/>
<path d="M452.194 245.518L440.517 246.18L440.386 243.864L445.564 237.678C446.273 236.808 446.79 236.055 447.114 235.418C447.445 234.781 447.596 234.186 447.564 233.632C447.521 232.876 447.297 232.294 446.89 231.886C446.483 231.471 445.925 231.284 445.215 231.324C444.45 231.367 443.861 231.667 443.447 232.222C443.039 232.77 442.86 233.472 442.909 234.33L439.516 234.523C439.457 233.486 439.649 232.524 440.092 231.638C440.542 230.752 441.206 230.041 442.083 229.506C442.96 228.963 443.972 228.66 445.119 228.595C446.874 228.495 448.259 228.839 449.274 229.627C450.296 230.414 450.851 231.575 450.939 233.112C450.986 233.954 450.817 234.825 450.429 235.723C450.042 236.622 449.351 237.682 448.356 238.904L444.715 243.207L452.039 242.792L452.194 245.518ZM455.537 249.613L453.718 248.788L454.096 248.004C454.564 247.023 454.78 246.06 454.742 245.115L454.593 242.494L457.448 242.332L457.569 244.673C457.61 245.539 457.441 246.425 457.062 247.331C456.683 248.237 456.175 248.997 455.537 249.613ZM469.766 238.089L471.697 237.98L471.851 240.706L469.921 240.815L470.13 244.501L466.749 244.692L466.54 241.007L459.555 241.403L459.282 239.282L465.747 227.659L469.164 227.465L469.766 238.089ZM462.618 238.495L466.385 238.281L466.044 232.267L465.843 232.666L462.618 238.495ZM473.058 230.531C472.999 229.486 473.29 228.62 473.932 227.934C474.574 227.241 475.444 226.863 476.544 226.8C477.66 226.737 478.575 227.01 479.29 227.619C480.005 228.22 480.394 229.07 480.456 230.17L480.504 231.013C480.564 232.066 480.272 232.931 479.63 233.609C478.988 234.287 478.117 234.658 477.017 234.72C475.909 234.783 474.994 234.514 474.271 233.913C473.556 233.304 473.167 232.454 473.106 231.362L473.058 230.531ZM475.356 231.305C475.382 231.773 475.536 232.143 475.818 232.417C476.107 232.682 476.47 232.802 476.907 232.778C477.343 232.753 477.682 232.589 477.923 232.286C478.164 231.983 478.271 231.589 478.244 231.106L478.195 230.24C478.168 229.772 478.018 229.401 477.744 229.127C477.47 228.853 477.107 228.729 476.655 228.754C476.226 228.779 475.887 228.943 475.638 229.246C475.389 229.542 475.279 229.943 475.307 230.45L475.356 231.305ZM481.745 239.651C481.685 238.598 481.981 237.733 482.631 237.054C483.28 236.368 484.151 235.994 485.243 235.932C486.351 235.869 487.262 236.138 487.977 236.739C488.699 237.332 489.092 238.186 489.155 239.302L489.203 240.144C489.262 241.189 488.975 242.055 488.341 242.74C487.706 243.418 486.831 243.788 485.716 243.851C484.593 243.915 483.673 243.642 482.958 243.034C482.243 242.425 481.855 241.586 481.794 240.517L481.745 239.651ZM484.043 240.437C484.068 240.866 484.229 241.224 484.527 241.513C484.825 241.801 485.184 241.933 485.606 241.909C486.557 241.855 487.003 241.302 486.943 240.249L486.893 239.359C486.867 238.891 486.713 238.525 486.432 238.259C486.15 237.985 485.791 237.861 485.354 237.886C484.917 237.91 484.574 238.075 484.326 238.378C484.076 238.674 483.966 239.068 483.993 239.559L484.043 240.437ZM478.142 242.767L476.442 241.971L484.006 228.185L485.706 228.98L478.142 242.767Z" fill="white"/>
<path d="M211.68 257H172.695V249.266L191.094 229.656C193.62 226.896 195.482 224.487 196.68 222.43C197.904 220.372 198.516 218.419 198.516 216.57C198.516 214.044 197.878 212.065 196.602 210.633C195.326 209.174 193.503 208.445 191.133 208.445C188.581 208.445 186.562 209.331 185.078 211.102C183.62 212.846 182.891 215.151 182.891 218.016H171.562C171.562 214.552 172.383 211.388 174.023 208.523C175.69 205.659 178.034 203.419 181.055 201.805C184.076 200.164 187.5 199.344 191.328 199.344C197.188 199.344 201.732 200.75 204.961 203.562C208.216 206.375 209.844 210.346 209.844 215.477C209.844 218.289 209.115 221.154 207.656 224.07C206.198 226.987 203.698 230.385 200.156 234.266L187.227 247.898H211.68V257ZM220.312 229.031L223.594 200.125H255.469V209.539H232.852L231.445 221.766C234.128 220.333 236.979 219.617 240 219.617C245.417 219.617 249.661 221.297 252.734 224.656C255.807 228.016 257.344 232.716 257.344 238.758C257.344 242.43 256.562 245.724 255 248.641C253.464 251.531 251.25 253.784 248.359 255.398C245.469 256.987 242.057 257.781 238.125 257.781C234.688 257.781 231.497 257.091 228.555 255.711C225.612 254.305 223.281 252.339 221.562 249.812C219.87 247.286 218.971 244.409 218.867 241.18H230.039C230.273 243.549 231.094 245.398 232.5 246.727C233.932 248.029 235.794 248.68 238.086 248.68C240.638 248.68 242.604 247.768 243.984 245.945C245.365 244.096 246.055 241.492 246.055 238.133C246.055 234.904 245.26 232.43 243.672 230.711C242.083 228.992 239.831 228.133 236.914 228.133C234.232 228.133 232.057 228.836 230.391 230.242L229.297 231.258L220.312 229.031ZM267.969 271.258L262.07 268.172L263.477 265.633C265.221 262.456 266.12 259.292 266.172 256.141V247.391H275.703L275.664 255.203C275.638 258.094 274.909 261.01 273.477 263.953C272.044 266.896 270.208 269.331 267.969 271.258ZM322.773 206.453L300.781 257H288.867L310.898 209.266H282.617V200.125H322.773V206.453ZM208.391 284.438H202.719V299H199.828V284.438H194.266V282.094H208.391V284.438ZM225.484 290.734C225.484 293.307 224.896 295.38 223.719 296.953C222.542 298.526 220.948 299.312 218.938 299.312C216.885 299.312 215.271 298.661 214.094 297.359V305.5H211.203V282.094H213.844L213.984 283.969C215.161 282.51 216.797 281.781 218.891 281.781C220.922 281.781 222.526 282.547 223.703 284.078C224.891 285.609 225.484 287.74 225.484 290.469V290.734ZM222.594 290.406C222.594 288.5 222.188 286.995 221.375 285.891C220.562 284.786 219.448 284.234 218.031 284.234C216.281 284.234 214.969 285.01 214.094 286.562V294.641C214.958 296.182 216.281 296.953 218.062 296.953C219.448 296.953 220.547 296.406 221.359 295.312C222.182 294.208 222.594 292.573 222.594 290.406ZM242.812 282.094V299H239.906V284.484H234.156L233.812 290.812C233.625 293.719 233.135 295.797 232.344 297.047C231.562 298.297 230.318 298.948 228.609 299H227.453V296.453L228.281 296.391C229.219 296.286 229.891 295.745 230.297 294.766C230.703 293.786 230.964 291.974 231.078 289.328L231.391 282.094H242.812ZM261.266 299H258.375V291.781H250.609V299H247.703V282.094H250.609V289.422H258.375V282.094H261.266V299ZM265.984 297.484C265.984 296.984 266.13 296.568 266.422 296.234C266.724 295.901 267.172 295.734 267.766 295.734C268.359 295.734 268.807 295.901 269.109 296.234C269.422 296.568 269.578 296.984 269.578 297.484C269.578 297.964 269.422 298.365 269.109 298.688C268.807 299.01 268.359 299.172 267.766 299.172C267.172 299.172 266.724 299.01 266.422 298.688C266.13 298.365 265.984 297.964 265.984 297.484ZM292.047 294.703H286.812V299H283.828V294.703H280.594V292.234H283.828V290.094H280.594V287.641H283.828V276.25H292.219C294.656 276.25 296.589 276.87 298.016 278.109C299.443 279.349 300.156 281.026 300.156 283.141C300.156 285.359 299.469 287.073 298.094 288.281C296.729 289.479 294.786 290.083 292.266 290.094H286.812V292.234H292.047V294.703ZM286.812 287.641H292.219C293.833 287.641 295.062 287.26 295.906 286.5C296.75 285.74 297.172 284.63 297.172 283.172C297.172 281.849 296.734 280.781 295.859 279.969C294.984 279.146 293.802 278.729 292.312 278.719H286.812V287.641Z" fill="#2E2E2E"/>
</svg>
