<svg width="151" height="247" viewBox="0 0 151 247" fill="none" xmlns="http://www.w3.org/2000/svg">
<path d="M150.501 123.5C150.501 191.707 95.3197 247 27.2504 247C-40.8189 247 -96 191.707 -96 123.5C-96 55.2928 -40.8189 0 27.2504 0C95.3197 0 150.501 55.2928 150.501 123.5ZM-38.4388 123.5C-38.4388 159.853 -9.02872 189.322 27.2504 189.322C63.5295 189.322 92.9396 159.853 92.9396 123.5C92.9396 87.1474 63.5295 57.6778 27.2504 57.6778C-9.02872 57.6778 -38.4388 87.1474 -38.4388 123.5Z" fill="#EEEEEE"/>
<mask id="path-2-inside-1" fill="white">
<path d="M149.548 104.595C148.072 95.0463 145.482 85.7042 141.833 76.7604L88.553 98.589C90.4981 103.356 91.8782 108.335 92.6649 113.424L149.548 104.595Z"/>
</mask>
<path d="M149.548 104.595C148.072 95.0463 145.482 85.7042 141.833 76.7604L88.553 98.589C90.4981 103.356 91.8782 108.335 92.6649 113.424L149.548 104.595Z" fill="#FF0000" stroke="#FF0000" stroke-width="2" mask="url(#path-2-inside-1)"/>
<mask id="path-3-inside-2" fill="white">
<path d="M150.958 126.723C151.121 120.492 150.812 114.257 150.035 108.072L92.9245 115.277C93.3387 118.574 93.5033 121.897 93.4167 125.218L150.958 126.723Z"/>
</mask>
<path d="M150.958 126.723C151.121 120.492 150.812 114.257 150.035 108.072L92.9245 115.277C93.3387 118.574 93.5033 121.897 93.4167 125.218L150.958 126.723Z" fill="#FF0000" stroke="#FF0000" stroke-width="2" mask="url(#path-3-inside-2)"/>
<mask id="path-4-inside-3" fill="white">
<path d="M137.893 178.921C145.376 163.991 149.757 147.695 150.772 131.019L93.3172 127.507C92.7762 136.395 90.4412 145.08 86.4535 153.038L137.893 178.921Z"/>
</mask>
<path d="M137.893 178.921C145.376 163.991 149.757 147.695 150.772 131.019L93.3172 127.507C92.7762 136.395 90.4412 145.08 86.4535 153.038L137.893 178.921Z" fill="#FF0000" stroke="#FF0000" stroke-width="2" mask="url(#path-4-inside-3)"/>
<path d="M52 135.274V152.817H48.5195L39.6953 144.537C38.4531 143.401 37.3691 142.563 36.4434 142.024C35.5176 141.473 34.6387 141.198 33.8066 141.198C32.6699 141.198 31.7793 141.485 31.1348 142.059C30.4785 142.633 30.1504 143.453 30.1504 144.52C30.1504 145.668 30.5488 146.576 31.3457 147.244C32.1309 147.901 33.168 148.229 34.457 148.229V153.326C32.8984 153.326 31.4746 152.957 30.1855 152.219C28.8965 151.469 27.8887 150.414 27.1621 149.055C26.4238 147.696 26.0547 146.155 26.0547 144.432C26.0547 141.795 26.6875 139.75 27.9531 138.297C29.2188 136.832 31.0059 136.1 33.3145 136.1C34.5801 136.1 35.8691 136.428 37.1816 137.084C38.4941 137.741 40.0234 138.866 41.7695 140.459L47.9043 146.278V135.274H52ZM39.4141 131.389L26.4062 129.912L26.4063 115.569H30.6426L30.6426 125.746L36.1445 126.379C35.5 125.172 35.1777 123.889 35.1777 122.53C35.1777 120.092 35.9336 118.182 37.4453 116.799C38.957 115.416 41.0723 114.725 43.791 114.725C45.4434 114.725 46.9258 115.076 48.2383 115.78C49.5391 116.471 50.5527 117.467 51.2793 118.768C51.9941 120.069 52.3516 121.604 52.3516 123.373C52.3516 124.92 52.041 126.356 51.4199 127.68C50.7871 129.004 49.9023 130.053 48.7656 130.826C47.6289 131.588 46.334 131.992 44.8809 132.039V127.012C45.9473 126.907 46.7793 126.537 47.377 125.905C47.9629 125.26 48.2559 124.422 48.2559 123.391C48.2559 122.242 47.8457 121.358 47.0254 120.737C46.1934 120.116 45.0215 119.805 43.5098 119.805C42.0566 119.805 40.9434 120.162 40.1699 120.877C39.3965 121.592 39.0098 122.606 39.0098 123.918C39.0098 125.125 39.3262 126.104 39.959 126.854L40.416 127.346L39.4141 131.389ZM58.416 109.944L57.0273 112.598L55.8848 111.965C54.4551 111.18 53.0312 110.776 51.6133 110.752H47.6758V106.463L51.1914 106.481C52.4922 106.492 53.8047 106.821 55.1289 107.465C56.4531 108.11 57.5488 108.936 58.416 109.944ZM29.2539 85.2815L52 95.178V100.539L30.5195 90.6253L30.5195 103.352H26.4063L26.4063 85.2815H29.2539ZM68.8984 143.598V147.143H78V148.949H68.8984V152.426H67.4336V143.598H68.8984ZM72.834 132.914C74.4421 132.914 75.7376 133.282 76.7207 134.018C77.7038 134.754 78.1953 135.75 78.1953 137.006C78.1953 138.289 77.7884 139.298 76.9746 140.033H82.0625V141.84H67.4336V140.19L68.6055 140.102C67.694 139.366 67.2383 138.344 67.2383 137.035C67.2383 135.766 67.7168 134.763 68.6738 134.028C69.6309 133.285 70.9622 132.914 72.668 132.914H72.834ZM72.6289 134.721C71.4375 134.721 70.4967 134.975 69.8066 135.483C69.1165 135.991 68.7715 136.687 68.7715 137.573C68.7715 138.666 69.2565 139.487 70.2266 140.033H75.2754C76.2389 139.493 76.7207 138.666 76.7207 137.553C76.7207 136.687 76.3789 136 75.6953 135.492C75.0052 134.978 73.9831 134.721 72.6289 134.721ZM67.4336 122.084H78V123.901H68.9277V127.494L72.8828 127.709C74.6992 127.826 75.998 128.132 76.7793 128.627C77.5605 129.116 77.9674 129.894 78 130.961V131.684H76.4082L76.3691 131.166C76.304 130.58 75.9655 130.16 75.3535 129.907C74.7415 129.653 73.6087 129.49 71.9551 129.418L67.4336 129.223V122.084ZM78 110.551V112.358H73.4883V117.211H78V119.028H67.4336V117.211H72.0137V112.358H67.4336V110.551H78ZM77.0527 107.602C76.7402 107.602 76.4798 107.511 76.2715 107.328C76.0632 107.14 75.959 106.86 75.959 106.489C75.959 106.117 76.0632 105.838 76.2715 105.649C76.4798 105.453 76.7402 105.356 77.0527 105.356C77.3522 105.356 77.6029 105.453 77.8047 105.649C78.0065 105.838 78.1074 106.117 78.1074 106.489C78.1074 106.86 78.0065 107.14 77.8047 107.328C77.6029 107.511 77.3522 107.602 77.0527 107.602ZM75.3145 91.3128V94.5843H78V96.4495H75.3145V98.471H73.7715V96.4495H72.4336V98.471H70.9004V96.4495H63.7813V91.2054C63.7813 89.6819 64.1686 88.4742 64.9434 87.5823C65.7181 86.6904 66.7663 86.2444 68.0879 86.2444C69.4746 86.2444 70.5456 86.6741 71.3008 87.5335C72.0495 88.3863 72.4271 89.6005 72.4336 91.1761V94.5843H73.7715V91.3128H75.3145ZM70.9004 94.5843V91.2054C70.9004 90.1962 70.6628 89.428 70.1875 88.9007C69.7122 88.3733 69.0189 88.1096 68.1074 88.1096C67.2806 88.1096 66.6133 88.3831 66.1055 88.93C65.5911 89.4768 65.3307 90.2158 65.3242 91.1468V94.5843H70.9004Z" fill="#2E2E2E"/>
</svg>
