<svg width="304" height="305" viewBox="0 0 304 305" fill="none" xmlns="http://www.w3.org/2000/svg">
<path d="M65.9769 26.7879C68.4923 25.0559 71.0594 23.4001 73.6746 21.8229L104.964 73.7036C103.392 74.6516 101.849 75.6469 100.337 76.6881L65.9769 26.7879Z" fill="#FF0000"/>
<path d="M54.4058 35.601C56.744 33.6364 59.1409 31.7426 61.5933 29.9225L97.7016 78.5723C96.2275 79.6664 94.7867 80.8047 93.3812 81.9857L54.4058 35.601Z" fill="#FF0000"/>
<path d="M44.7161 44.4861C46.8756 42.3266 49.0998 40.2327 51.3856 38.2072L91.5657 83.5523C90.1917 84.7698 88.8547 86.0285 87.5566 87.3266L44.7161 44.4861Z" fill="#FF0000"/>
<path d="M34.6526 55.5957C36.5888 53.2338 38.5958 50.9308 40.6708 48.6899L85.1249 89.8536C83.8776 91.2006 82.6712 92.5849 81.5074 94.0047L34.6526 55.5957Z" fill="#FF0000"/>
<path d="M26.1095 67.0813C27.8147 64.5476 29.596 62.066 31.4508 59.6397L79.5827 96.4356C78.4678 97.894 77.397 99.3858 76.372 100.909L26.1095 67.0813Z" fill="#FF0000"/>
<path d="M18.7696 79.166C20.2318 76.4848 21.7746 73.8482 23.3957 71.26L74.7407 103.421C73.7662 104.976 72.8389 106.561 71.9599 108.173L18.7696 79.166Z" fill="#FF0000"/>
<path d="M12.8763 91.2085C14.0964 88.4087 15.4006 85.6464 16.7873 82.9252L70.7683 110.433C69.9348 112.068 69.1508 113.729 68.4174 115.412L12.8763 91.2085Z" fill="#FF0000"/>
<path d="M8.07065 103.716C9.03923 100.819 10.0949 97.9528 11.2364 95.1201L67.4316 117.763C66.7455 119.466 66.1109 121.189 65.5287 122.93L8.07065 103.716Z" fill="#FF0000"/>
<path d="M4.16883 117.52C4.85984 114.545 5.64042 111.591 6.50951 108.664L64.5903 125.904C64.0679 127.664 63.5986 129.439 63.1833 131.228L4.16883 117.52Z" fill="#FF0000"/>
<path d="M1.64788 131.18C2.06422 128.154 2.57171 125.142 3.16968 122.147L62.5827 134.009C62.2232 135.81 61.9182 137.62 61.6679 139.439L1.64788 131.18Z" fill="#FF0000"/>
<path d="M0.360886 145.581C0.487657 142.529 0.706434 139.482 1.01692 136.444L61.2886 142.603C61.102 144.43 60.9705 146.261 60.8943 148.095L0.360886 145.581Z" fill="#FF0000"/>
<path d="M0.569667 162.038C0.365526 158.99 0.25334 155.938 0.233263 152.884L60.8176 152.485C60.8296 154.321 60.8971 156.156 61.0198 157.988L0.569667 162.038Z" fill="#FF0000"/>
<path d="M2.17885 176.138C1.69118 173.123 1.29455 170.094 0.989505 167.056L61.2721 161.004C61.4555 162.831 61.6939 164.652 61.9871 166.464L2.17885 176.138Z" fill="#FF0000"/>
<path d="M5.30068 190.803C4.51813 187.851 3.8248 184.876 3.22163 181.882L62.6139 169.917C62.9765 171.716 63.3932 173.505 63.8636 175.279L5.30068 190.803Z" fill="#FF0000"/>
<path d="M9.47766 204.074C8.42827 201.206 7.46562 198.307 6.59103 195.38L64.6393 178.031C65.165 179.789 65.7437 181.532 66.3745 183.256L9.47766 204.074Z" fill="#FF0000"/>
<path d="M14.8499 216.903C13.5426 214.143 12.3187 211.344 11.1801 208.51L67.3978 185.923C68.0823 187.627 68.8179 189.309 69.6038 190.968L14.8499 216.903Z" fill="#FF0000"/>
<path d="M21.9002 230.072C20.328 227.454 18.8352 224.788 17.4237 222.08L71.1509 194.08C71.9993 195.708 72.8967 197.31 73.8417 198.884L21.9002 230.072Z" fill="#FF0000"/>
<path d="M29.8722 242.028C28.0597 239.57 26.3216 237.058 24.6605 234.495L75.501 201.543C76.4995 203.083 77.5443 204.593 78.6338 206.071L29.8722 242.028Z" fill="#FF0000"/>
<path d="M40.0205 254.374C37.9597 252.12 35.9674 249.804 34.0462 247.43L81.1428 209.318C82.2977 210.745 83.4953 212.137 84.7341 213.492L40.0205 254.374Z" fill="#FF0000"/>
<path d="M50.8277 265.066C48.5519 263.03 46.338 260.925 44.1891 258.755L87.2398 216.125C88.5315 217.43 89.8623 218.695 91.2303 219.919L50.8277 265.066Z" fill="#FF0000"/>
<path d="M65.8328 276.883C63.3194 275.148 60.8589 273.338 58.4546 271.454L95.8149 223.759C97.2602 224.891 98.7392 225.98 100.25 227.022L65.8328 276.883Z" fill="#FF0000"/>
<path d="M81.0232 286.105C78.3243 284.676 75.6692 283.165 73.0614 281.576L104.595 229.843C106.163 230.799 107.759 231.707 109.381 232.566L81.0232 286.105Z" fill="#FF0000"/>
<path d="M99.1134 294.222C96.2513 293.157 93.4221 292.005 90.6294 290.769L115.156 235.369C116.834 236.112 118.535 236.805 120.255 237.445L99.1134 294.222Z" fill="#FF0000"/>
<path d="M114.87 299.133C111.909 298.384 108.972 297.546 106.061 296.62L124.432 238.887C126.181 239.443 127.947 239.947 129.727 240.397L114.87 299.133Z" fill="#FF0000"/>
<path d="M129.862 302.131C126.84 301.684 123.834 301.145 120.845 300.516L133.318 241.229C135.115 241.607 136.922 241.93 138.738 242.199L129.862 302.131Z" fill="#FF0000"/>
<path d="M147.074 303.687C144.022 303.585 140.973 303.392 137.932 303.107L143.59 242.786C145.418 242.957 147.25 243.073 149.085 243.134L147.074 303.687Z" fill="#FF0000"/>
<path d="M163.527 303.341C160.482 303.57 157.43 303.708 154.376 303.753L153.474 243.175C155.31 243.147 157.144 243.065 158.975 242.927L163.527 303.341Z" fill="#FF0000"/>
<path d="M178.361 301.485C175.353 302.013 172.33 302.45 169.295 302.796L162.442 242.599C164.266 242.391 166.084 242.128 167.892 241.811L178.361 301.485Z" fill="#FF0000"/>
<path d="M193.48 298.029C190.542 298.861 187.579 299.604 184.595 300.257L171.639 241.073C173.433 240.68 175.214 240.233 176.98 239.733L193.48 298.029Z" fill="#FF0000"/>
<path d="M208.359 292.973C205.522 294.104 202.651 295.149 199.752 296.107L180.75 238.578C182.493 238.002 184.218 237.374 185.924 236.694L208.359 292.973Z" fill="#FF0000"/>
<path d="M222.282 286.591C219.573 288.002 216.823 289.331 214.034 290.576L189.335 235.253C191.012 234.505 192.665 233.706 194.293 232.858L222.282 286.591Z" fill="#FF0000"/>
<path d="M235.117 279.085C232.56 280.754 229.952 282.345 227.299 283.857L197.309 231.215C198.904 230.306 200.471 229.349 202.008 228.346L235.117 279.085Z" fill="#FF0000"/>
<path d="M247.175 270.345C244.793 272.256 242.354 274.095 239.861 275.86L204.86 226.407C206.359 225.347 207.825 224.241 209.257 223.092L247.175 270.345Z" fill="#FF0000"/>
<path d="M258.094 260.686C255.906 262.817 253.654 264.882 251.342 266.877L211.761 221.008C213.151 219.808 214.505 218.567 215.82 217.286L258.094 260.686Z" fill="#FF0000"/>
<path d="M268.423 249.566C266.459 251.904 264.425 254.183 262.323 256.399L218.362 214.71C219.626 213.378 220.848 212.008 222.029 210.602L268.423 249.566Z" fill="#FF0000"/>
<path d="M277.788 237.181C276.073 239.708 274.282 242.182 272.418 244.601L224.43 207.618C225.551 206.164 226.628 204.676 227.658 203.157L277.788 237.181Z" fill="#FF0000"/>
<path d="M286.395 222.865C284.967 225.565 283.459 228.221 281.872 230.83L230.113 199.34C231.067 197.772 231.974 196.175 232.832 194.552L286.395 222.865Z" fill="#FF0000"/>
<path d="M292.683 209.417C291.526 212.243 290.284 215.034 288.959 217.786L234.373 191.499C235.17 189.845 235.916 188.167 236.611 186.468L292.683 209.417Z" fill="#FF0000"/>
<path d="M297.008 197.437C296.092 200.351 295.089 203.236 293.999 206.089L237.403 184.468C238.058 182.753 238.661 181.018 239.212 179.267L297.008 197.437Z" fill="#FF0000"/>
<path d="M300.253 185.416C299.579 188.394 298.815 191.352 297.962 194.285L239.785 177.372C240.298 175.609 240.757 173.831 241.162 172.041L300.253 185.416Z" fill="#FF0000"/>
<path d="M302.527 172.985C302.103 176.01 301.588 179.02 300.982 182.014L241.6 169.996C241.965 168.196 242.274 166.387 242.529 164.568L302.527 172.985Z" fill="#FF0000"/>
<path d="M303.991 150.183C304.025 153.237 303.967 156.291 303.817 159.341L243.305 156.367C243.395 154.533 243.429 152.698 243.409 150.862L303.991 150.183Z" fill="#FF0000"/>
<path d="M303.672 161.872C303.471 164.92 303.178 167.96 302.794 170.99L242.689 163.369C242.92 161.548 243.096 159.72 243.217 157.888L303.672 161.872Z" fill="#FF0000"/>
<path d="M303.434 138.781C303.697 141.824 303.869 144.874 303.949 147.927L243.384 149.506C243.336 147.671 243.233 145.837 243.074 144.008L303.434 138.781Z" fill="#FF0000"/>
<path d="M301.677 126.654C302.21 129.661 302.651 132.684 303.001 135.718L242.814 142.657C242.603 140.833 242.338 139.016 242.018 137.209L301.677 126.654Z" fill="#FF0000"/>
<path d="M299.716 116.066C300.437 119.034 301.067 122.023 301.607 125.029L241.976 135.742C241.651 133.935 241.272 132.138 240.84 130.354L299.716 116.066Z" fill="#FF0000"/>
<path d="M296.67 105.27C297.607 108.177 298.457 111.111 299.217 114.069L240.54 129.154C240.082 127.376 239.572 125.612 239.008 123.865L296.67 105.27Z" fill="#FF0000"/>
<path d="M292.865 94.802C294.013 97.6322 295.075 100.496 296.05 103.39L238.636 122.735C238.05 120.995 237.411 119.273 236.721 117.572L292.865 94.802Z" fill="#FF0000"/>
<path d="M288.431 84.8985C289.777 87.6395 291.041 90.4205 292.221 93.2377L236.334 116.632C235.625 114.938 234.865 113.267 234.056 111.619L288.431 84.8985Z" fill="#FF0000"/>
<path d="M283.244 75.2418C284.786 77.8785 286.247 80.5611 287.626 83.2859L233.572 110.649C232.743 109.012 231.864 107.399 230.938 105.814L283.244 75.2418Z" fill="#FF0000"/>
<path d="M277.064 65.5326C278.801 68.045 280.461 70.6093 282.043 73.2218L230.216 104.6C229.265 103.029 228.267 101.488 227.223 99.9779L277.064 65.5326Z" fill="#FF0000"/>
<path d="M270.183 56.3395C272.105 58.7136 273.954 61.145 275.728 63.6306L226.42 98.8345C225.353 97.3404 224.242 95.8789 223.087 94.4518L270.183 56.3395Z" fill="#FF0000"/>
<path d="M263.022 48.112C265.108 50.3421 267.127 52.6346 269.075 54.9864L222.421 93.6384C221.25 92.2247 220.036 90.8467 218.782 89.5062L263.022 48.112Z" fill="#FF0000"/>
<path d="M254.871 40.0353C257.12 42.1015 259.306 44.2351 261.426 46.4331L217.823 88.4969C216.549 87.1757 215.234 85.8932 213.882 84.6512L254.871 40.0353Z" fill="#FF0000"/>
<path d="M245.607 32.1839C248.014 34.0638 250.363 36.0159 252.653 38.0375L212.549 83.4503C211.173 82.2351 209.761 81.0617 208.314 79.9317L245.607 32.1839Z" fill="#FF0000"/>
<path d="M235.904 25.2022C238.451 26.887 240.947 28.6482 243.388 30.4835L206.98 78.9095C205.513 77.8063 204.012 76.7476 202.481 75.7349L235.904 25.2022Z" fill="#FF0000"/>
<path d="M225.522 18.9168C228.195 20.3929 230.824 21.9492 233.404 23.5838L200.978 74.762C199.428 73.7795 197.848 72.844 196.24 71.9567L225.522 18.9168Z" fill="#FF0000"/>
<path d="M214.346 13.3338C217.131 14.5851 219.879 15.9202 222.584 17.3371L194.475 71.0071C192.849 70.1554 191.197 69.3529 189.522 68.6007L214.346 13.3338Z" fill="#FF0000"/>
<path d="M203.618 8.99868C206.491 10.0343 209.332 11.1563 212.138 12.3632L188.195 68.0173C186.509 67.2918 184.801 66.6173 183.074 65.9948L203.618 8.99868Z" fill="#FF0000"/>
<path d="M192.663 5.51248C195.606 6.32781 198.524 7.23172 201.413 8.22298L181.749 65.5285C180.012 64.9327 178.258 64.3893 176.489 63.8992L192.663 5.51248Z" fill="#FF0000"/>
<path d="M181.299 2.83013C184.296 3.41695 187.275 4.09404 190.231 4.86047L175.027 63.5073C173.25 63.0466 171.459 62.6396 169.658 62.2868L181.299 2.83013Z" fill="#FF0000"/>
<path d="M168.537 0.890372C171.573 1.22058 174.599 1.64228 177.609 2.15491L167.44 61.8809C165.63 61.5728 163.811 61.3193 161.986 61.1208L168.537 0.890372Z" fill="#FF0000"/>
<path d="M156.222 0.0555445C159.275 0.138132 162.325 0.312782 165.367 0.579257L160.081 60.9338C158.252 60.7736 156.419 60.6686 154.584 60.619L156.222 0.0555445Z" fill="#FF0000"/>
<path d="M143.655 0.235799C146.704 0.065686 149.758 -0.012416 152.812 0.00159933L152.534 60.5866C150.698 60.5781 148.863 60.6251 147.03 60.7273L143.655 0.235799Z" fill="#FF0000"/>
<path d="M130.656 1.52362C133.679 1.09212 136.715 0.751907 139.759 0.503449L144.688 60.8882C142.858 61.0376 141.033 61.2421 139.216 61.5015L130.656 1.52362Z" fill="#FF0000"/>
<path d="M118.039 3.87187C121.015 3.18668 124.012 2.59142 127.024 2.08689L137.032 61.8401C135.222 62.1433 133.421 62.5012 131.632 62.913L118.039 3.87187Z" fill="#FF0000"/>
<path d="M104.999 7.49279C107.902 6.54539 110.834 5.68578 113.789 4.91512L129.077 63.5401C127.3 64.0034 125.538 64.5201 123.793 65.0896L104.999 7.49279Z" fill="#FF0000"/>
<path d="M92.9159 12.0118C95.7284 10.8215 98.5762 9.7162 101.455 8.69755L121.663 65.8138C119.932 66.4261 118.221 67.0905 116.53 67.806L92.9159 12.0118Z" fill="#FF0000"/>
<path d="M79.3944 18.5405C82.0756 17.0783 84.8004 15.6972 87.5649 14.3993L113.313 69.2411C111.652 70.0213 110.014 70.8515 108.402 71.7305L79.3944 18.5405Z" fill="#FF0000"/>
</svg>
