<svg width="29" height="28" viewBox="0 0 29 28" fill="none" xmlns="http://www.w3.org/2000/svg">
<path d="M27.7182 20.6518L24.2543 17.171C23.2994 16.2114 21.7454 16.2114 20.7905 17.171L19.2161 18.7532C18.4926 19.4802 17.3154 19.48 16.5922 18.7535L9.76785 11.8898C9.04269 11.1611 9.04258 9.98163 9.76785 9.25281C10.0214 8.99796 10.7496 8.26619 11.3423 7.67064C12.2931 6.71525 12.3063 5.15857 11.3414 4.18896L7.87847 0.720017C6.9235 -0.239586 5.36963 -0.239586 4.41721 0.717501C3.70452 1.42746 3.47465 1.65649 3.15509 1.97482C-0.288648 5.4354 -0.288648 11.0662 3.15492 14.5267L13.9679 25.3983C17.4197 28.8671 23.0065 28.8674 26.4585 25.3983L27.7182 24.1326C28.6731 23.1729 28.6731 21.6115 27.7182 20.6518ZM5.56929 1.88027C5.8876 1.5604 6.40547 1.56035 6.72481 1.88114L10.1877 5.35009C10.5068 5.67072 10.5068 6.18965 10.1877 6.51034L9.61035 7.09046L4.99494 2.45241L5.56929 1.88027ZM15.1227 24.2382L4.30968 13.3665C1.64535 10.6891 1.49891 6.48496 3.85929 3.63175L8.46132 8.25635C7.25209 9.63387 7.30248 11.7329 8.61299 13.0499L15.4371 19.9132C15.4372 19.9133 15.4373 19.9134 15.4373 19.9134C16.7464 21.229 18.8351 21.2829 20.2076 20.0661L24.8098 24.6908C21.9795 27.0587 17.8053 26.9341 15.1227 24.2382ZM26.5636 22.9723L25.9863 23.5525L21.3679 18.9114L21.9451 18.3313C22.2635 18.0114 22.7814 18.0114 23.0998 18.3313L26.5636 21.8121C26.8819 22.132 26.8819 22.6525 26.5636 22.9723Z" fill="white"/>
</svg>
