<svg width="26" height="26" fill="none" xmlns="http://www.w3.org/2000/svg"><path d="M11.632 16.12a.462.462 0 0 1 .65-.055c1.094.922 2.072 1.482 3.196 2.07l-3.846-2.015zm0 0a.462.462 0 0 0 .055.651m-.055-.65l.055.65m0 0c1.262 1.064 2.36 1.665 3.666 2.34m-3.666-2.34l3.666 2.34m0 0a.462.462 0 0 0 .539-.084l-.54.083zm-2.99-3.142h0c1.057.891 2.005 1.442 3.091 2.012l2.758-2.758a1.39 1.39 0 0 1 .988-.409c.373 0 .725.145.988.409l4.528 4.527h0l-.089.089c.24.24.373.56.373.9 0 .34-.132.659-.373.899l-1.217 1.217c-1.41 1.41-3.33 2.144-5.534 2.144l-5.513-9.03zm0 0a.587.587 0 0 0-.827.07v.001m.827-.07l-.827.07M6.25 1.284l4.528 4.528h0l-.088.089c.24.24.372.56.372.899 0 .34-.132.66-.373.9L6.25 1.284zm0 0s0 0 0 0h0zm5.287 14.756a.587.587 0 0 0 .07.827h0m-.07-.827l.07.827m0 0c1.274 1.073 2.382 1.679 3.69 2.355h0m-3.69-2.355l3.69 2.355m0 0a.587.587 0 0 0 .684-.107l1.43-1.43 4.823 4.822c-1.575 1.291-3.782 1.741-6.3 1.246-2.894-.569-5.968-2.354-8.65-5.036-2.682-2.682-4.468-5.756-5.037-8.65-.495-2.518-.045-4.725 1.246-6.3m11.803 15.455L3.492 3.767m0 0L8.315 8.59l-1.43 1.43h0a.587.587 0 0 0-.107.685c.923 1.785 1.672 3.102 3.544 4.974h0a.587.587 0 0 0 .83-.83L3.491 3.767zm12.215 21.138c.746.146 1.471.22 2.17.219L6.16 1.373C5.92 1.133 5.6 1 5.26 1c-.34 0-.66.132-.9.373L3.145 2.59C1.292 4.442.608 7.17 1.217 10.269c.61 3.102 2.5 6.366 5.324 9.19 2.824 2.823 6.087 4.713 9.19 5.323l-.024.123s0 0 0 0zM8.018 10.546l2.759-2.758.374 7.06c-1.626-1.626-2.322-2.758-3.133-4.302zm-2.6-8.432h.001l4.528 4.528a.221.221 0 0 1 .066.158c0 .06-.024.116-.066.158l-.802.802-4.844-4.844.802-.802a.221.221 0 0 1 .158-.065.22.22 0 0 1 .158.065zm18.468 18.782l-.802.802-4.844-4.843.803-.802h0a.22.22 0 0 1 .157-.066c.06 0 .116.024.158.066l.089-.088-.089.088 4.528 4.527a.224.224 0 0 1 0 .316s0 0 0 0z" fill="#fff" stroke="#fff" stroke-width=".25"/></svg>