<svg width="40" height="40" viewBox="0 0 40 40" fill="none" xmlns="http://www.w3.org/2000/svg">
<path d="M24.4083 14.9326L19.5895 19.7514L14.9803 15.1421C14.7485 14.9104 14.3735 14.9108 14.1422 15.1421C13.9109 15.3734 13.9105 15.7484 14.1422 15.9801L18.7515 20.5894L13.9327 25.4082C13.7014 25.6395 13.701 26.0146 13.9327 26.2463C14.1644 26.478 14.5394 26.4776 14.7707 26.2463L19.5895 21.4275L24.6179 26.4558C24.8496 26.6875 25.2246 26.6871 25.4559 26.4558C25.6872 26.2245 25.6876 25.8495 25.4559 25.6178L20.4276 20.5894L25.2464 15.7706C25.4777 15.5393 25.4781 15.1643 25.2464 14.9326C25.0147 14.7009 24.6397 14.7013 24.4083 14.9326Z" fill="#FF0000"/>
<circle cx="19.799" cy="19.799" r="13.5" transform="rotate(-45 19.799 19.799)" stroke="#FF0000"/>
</svg>
