<svg width="23" height="16" viewBox="0 0 23 16" fill="none" xmlns="http://www.w3.org/2000/svg">
<circle cx="3" cy="8" r="3" fill="#545454"/>
<path d="M3.01277 7.00008C2.46053 6.99303 2.00714 7.43499 2.00008 7.98723C1.99303 8.53947 2.43499 8.99286 2.98723 8.99992L3.01277 7.00008ZM21.6965 8.946C22.092 8.5605 22.1001 7.92739 21.7146 7.53191L15.4325 1.08717C15.047 0.691693 14.4138 0.683605 14.0184 1.06911C13.6229 1.45461 13.6148 2.08773 14.0003 2.48321L19.5844 8.21186L13.8558 13.796C13.4603 14.1815 13.4522 14.8146 13.8377 15.2101C14.2232 15.6056 14.8563 15.6137 15.2518 15.2282L21.6965 8.946ZM2.98723 8.99992L20.9858 9.22984L21.0113 7.23L3.01277 7.00008L2.98723 8.99992Z" fill="#545454"/>
</svg>
