<svg width="30" height="103" viewBox="0 0 30 103" fill="none" xmlns="http://www.w3.org/2000/svg">
<path d="M1.25116 0.0322815C0.716648 -0.106689 0.170682 0.213964 0.031714 0.74848C-0.10726 1.28299 0.213388 1.82896 0.747907 1.96793L1.25116 0.0322815ZM15.0726 101.874C15.2794 102.387 15.8622 102.634 16.3743 102.427L24.7198 99.058C25.2319 98.8512 25.4794 98.2685 25.2727 97.7564C25.0659 97.2442 24.4832 96.9967 23.971 97.2035L16.5528 100.198L13.5578 92.7802C13.3511 92.2681 12.7683 92.0206 12.2562 92.2273C11.744 92.4341 11.4965 93.0168 11.7033 93.529L15.0726 101.874ZM0.747907 1.96793C12.7883 5.09838 22.3272 15.7236 25.8959 32.7057C29.4666 49.6969 27.0265 72.9834 15.0795 101.109L16.9203 101.891C28.9729 73.5168 31.5326 49.8032 27.8532 32.2944C24.1719 14.7765 14.2108 3.40173 1.25116 0.0322815L0.747907 1.96793Z" fill="#FF0000"/>
</svg>
