<svg width="56" height="53" viewBox="0 0 56 53" fill="none" xmlns="http://www.w3.org/2000/svg">
<path d="M16.2662 3.03625C15.7339 2.88902 15.183 3.20118 15.0358 3.73348C14.8885 4.26578 15.2007 4.81665 15.733 4.96388L16.2662 3.03625ZM33.0598 48.8417C33.2486 49.3608 33.8223 49.6285 34.3414 49.4398L42.7995 46.3641C43.3186 46.1754 43.5863 45.6016 43.3976 45.0826C43.2088 44.5635 42.6351 44.2958 42.116 44.4845L34.5977 47.2185L31.8637 39.7001C31.675 39.1811 31.1012 38.9133 30.5822 39.1021C30.0632 39.2908 29.7954 39.8646 29.9842 40.3836L33.0598 48.8417ZM15.733 4.96388C27.1466 8.12081 33.1349 15.2349 35.4764 23.3401C37.835 31.5045 36.5106 40.7547 33.0935 48.0771L34.9058 48.9229C38.4887 41.2453 39.9142 31.4955 37.3978 22.785C34.8643 14.0151 28.3525 6.37925 16.2662 3.03625L15.733 4.96388Z" fill="#FF0000"/>
</svg>
