<svg width="36" height="33" fill="none" xmlns="http://www.w3.org/2000/svg"><path d="M22.569 32c-4.485 0-6.79-.585-8.312-.972-.715-.182-1.232-.313-1.7-.313H6.383c-.3 0-.545-.221-.545-.494V18.588c0-.273.244-.494.545-.494 2.139 0 3.992-1.071 5.506-3.183 2.129-2.972 3.383-4.638 5.632-7.265 2.129-2.483 3.308-5.208 3.52-6.071l.079-.347C21.25.624 21.386 0 22.497 0c2.176 0 3.352 2.275 3.352 4.417 0 1.322-.55 3.1-1.68 5.436-.44.91-.372 1.544-.179 1.81.096.134.232.196.426.196h8.66c1.054.11 2.924.854 2.924 2.903 0 1.357-.543 2.114-1.056 2.526.506.416 1.056 1.14 1.056 2.326 0 1.38-1.01 2.248-1.757 2.703.387.4.762 1.074.762 2.182 0 1.578-1.486 2.379-2.432 2.73.375.614.448 1.34.26 2.335C32.512 31.272 29.44 32 22.57 32zm-15.64-2.273h5.628c.617 0 1.225.154 1.994.35 1.467.372 3.683.935 8.018.935 7.729 0 9.073-1.01 9.188-1.613.218-1.157-.016-1.655-.464-2.084a.461.461 0 0 1-.125-.48.527.527 0 0 1 .398-.34c.023-.004 2.346-.517 2.346-1.994 0-1.473-.808-1.772-.841-1.784a.507.507 0 0 1-.356-.458.492.492 0 0 1 .333-.466c.018-.007 1.86-.706 1.86-2.178 0-1.47-1.16-1.88-1.17-1.884a.495.495 0 0 1-.354-.489.51.51 0 0 1 .409-.452c.037-.01 1.115-.317 1.115-2.028 0-1.694-1.82-1.91-1.898-1.918l-8.594.003c-.564 0-1.039-.228-1.339-.643-.471-.653-.437-1.654.092-2.748 1.068-2.209 1.588-3.858 1.588-5.04 0-1.423-.7-3.428-2.26-3.428a.684.684 0 0 0-.217.02l-.089.41-.084.372c-.228.93-1.48 3.848-3.723 6.463-2.226 2.599-3.467 4.25-5.578 7.197-1.604 2.236-3.577 3.449-5.876 3.614v10.663z" fill="red"/><path d="M6.283 33H.528C.237 33 0 32.778 0 32.505v-17.01C0 15.222.237 15 .528 15h5.755c.291 0 .528.222.528.495v17.01c0 .273-.236.495-.528.495zm-5.226-.99h4.697V15.99H1.057v16.02z" fill="red"/></svg>33.3705 17.4576 33.3836 17.2422C33.3967 17.0269 33.5615 16.8441 33.7928 16.7898C33.8299 16.7799 34.9079 16.4727 34.9079 14.7617C34.9079 13.0685 33.0879 12.8522 33.0105 12.8443L24.4159 12.8472C23.8518 12.8472 23.3772 12.619 23.0772 12.2041C22.6058 11.5511 22.6396 10.5504 23.1688 9.45587C24.237 7.247 24.7574 5.59825 24.7574 4.41577C24.7574 2.99324 24.057 0.987868 22.4967 0.987868C22.3308 0.987868 22.2807 1.00664 22.2796 1.00763C22.2741 1.0343 22.2283 1.24768 22.1912 1.41858L22.1072 1.79002C21.8791 2.7196 20.6266 5.63776 18.3844 8.25265C16.1585 10.8517 14.9169 12.5025 12.8056 15.4503C11.2017 17.6858 9.22901 18.8989 6.93007 19.0639V29.7269H6.92898Z" fill="#FF0000"/>
<path d="M6.28251 33H0.528297C0.236677 33 0 32.7782 0 32.5049V15.4951C0 15.2218 0.236677 15 0.528297 15H6.28251C6.57413 15 6.81081 15.2218 6.81081 15.4951V32.5049C6.81081 32.7782 6.57519 33 6.28251 33ZM1.05659 32.0098H5.75422V15.9902H1.05659V32.0098Z" fill="#FF0000"/>
</svg>
